<svg width="2600" height="369.96047430830043" xmlns="http://www.w3.org/2000/svg">

 <g>
  <title>background</title>
  <rect fill="none" id="canvas_background" height="371.96047" width="2602" y="-1" x="-1"/>
 </g>
 <g>
  <title>Layer 1</title>
  <g id="svgg">
   <path fill-rule="evenodd" fill="#ed0c2a" d="m262.581,31.852l-0.979,0.771l0.012,80.515c0.012,82.827 -0.011,81.497 1.435,81.497c0.628,0 6.621,-3.506 13.712,-8.02c8.793,-5.597 20.887,-14.709 27.217,-20.506c0.61,-0.559 1.743,-1.554 2.516,-2.211c2.681,-2.278 2.468,3.322 2.479,-65.165c0.006,-34.053 0.008,-62.937 0.005,-64.186c-0.008,-3.662 1.356,-3.465 -23.97,-3.465c-21.167,0 -21.461,0.01 -22.427,0.77m-58.155,32.255c-0.096,0.255 -0.133,35.597 -0.081,78.539l0.095,78.076l1.11,-0.053c1.428,-0.068 3.708,-0.842 13.321,-4.524c2.646,-1.013 5.31,-2.104 5.921,-2.423c0.61,-0.32 1.334,-0.582 1.608,-0.584c0.274,-0.001 0.94,-0.239 1.48,-0.528c0.54,-0.29 1.815,-0.892 2.832,-1.338c3.222,-1.412 8.719,-4.002 13.691,-6.449c2.646,-1.302 5.252,-2.535 5.79,-2.739c0.818,-0.31 1.018,-0.667 1.207,-2.153c0.342,-2.682 0.145,-134.493 -0.202,-135.454l-0.301,-0.832l-23.147,0c-18.178,0 -23.186,0.099 -23.324,0.462m-56.415,34.274l-0.925,0.265l-0.105,66.958c-0.057,36.827 -0.005,67.514 0.116,68.193l0.219,1.234l2.105,-0.163c3.799,-0.294 8.716,-1.048 11.586,-1.776c1.55,-0.393 3.254,-0.715 3.785,-0.715c0.531,0 2.009,-0.321 3.285,-0.714c1.277,-0.393 3.57,-0.968 5.096,-1.278c1.526,-0.31 4.107,-0.893 5.735,-1.296c1.629,-0.403 4.043,-0.995 5.366,-1.315c1.323,-0.321 2.674,-0.735 3.002,-0.921c0.328,-0.186 1.629,-0.542 2.892,-0.79c1.262,-0.249 2.659,-0.746 3.103,-1.106l0.809,-0.655l0,-62.548c0,-50.812 -0.091,-62.639 -0.481,-63.03c-0.532,-0.533 -43.785,-0.858 -45.588,-0.343m-37.928,28.909c-10.99,0.101 -20.189,0.319 -20.444,0.484c-0.366,0.237 -0.46,11.07 -0.451,52.174l0.012,51.874l0.881,0.641c0.484,0.352 1.686,0.829 2.671,1.061c0.985,0.231 2.872,0.732 4.195,1.113c1.323,0.382 3.868,0.867 5.656,1.079c1.788,0.212 4.119,0.552 5.18,0.755c2.886,0.552 15.196,0.859 21.83,0.545l5.839,-0.277l0.546,-1.057c0.756,-1.461 0.798,-106.206 0.044,-107.573c-0.592,-1.072 -0.166,-1.058 -25.959,-0.819m212.211,75.754c-0.305,0.115 -0.688,0.435 -0.851,0.711c-0.163,0.275 -0.531,0.5 -0.819,0.5c-0.288,0 -0.702,0.333 -0.92,0.74c-0.218,0.407 -0.559,0.74 -0.758,0.74c-0.2,0 -1.265,0.708 -2.369,1.573c-4.11,3.222 -8.276,6.197 -12.229,8.734c-2.239,1.437 -4.484,2.911 -4.989,3.276c-0.506,0.365 -2.171,1.453 -3.701,2.419c-1.529,0.965 -3.031,1.925 -3.336,2.133c-0.502,0.341 -3.822,2.309 -6.938,4.111c-0.662,0.383 -1.827,1.058 -2.59,1.501c-0.763,0.442 -3.22,1.779 -5.458,2.97c-2.239,1.191 -4.32,2.325 -4.626,2.52c-1.21,0.774 -6.119,3.29 -10.46,5.361c-1.174,0.561 -2.211,1.143 -2.305,1.294c-0.094,0.152 -0.687,0.379 -1.318,0.505c-0.631,0.126 -1.573,0.564 -2.093,0.973c-0.519,0.409 -1.155,0.743 -1.412,0.743c-0.257,0 -1.608,0.565 -3.003,1.254c-2.295,1.136 -3.988,1.919 -8.456,3.913c-0.814,0.364 -2.562,1.108 -3.885,1.654c-4.305,1.777 -5.701,2.365 -7.908,3.33c-1.195,0.523 -2.418,0.95 -2.718,0.95c-0.3,0 -0.988,0.248 -1.528,0.55c-0.54,0.303 -1.648,0.786 -2.462,1.074c-0.814,0.289 -2.646,0.968 -4.07,1.51c-1.425,0.541 -3.257,1.165 -4.071,1.385c-0.814,0.22 -1.679,0.555 -1.922,0.744c-0.244,0.19 -1.326,0.57 -2.406,0.845c-1.079,0.275 -3.627,1.07 -5.662,1.766c-2.036,0.696 -4.866,1.611 -6.291,2.032c-1.425,0.421 -4.089,1.207 -5.92,1.746c-1.832,0.54 -3.83,1.155 -4.441,1.368c-0.61,0.213 -2.359,0.694 -3.885,1.07c-1.526,0.375 -3.686,0.939 -4.799,1.252c-1.112,0.313 -2.449,0.569 -2.97,0.569c-0.521,0 -1.275,0.23 -1.677,0.51c-0.401,0.28 -1.979,0.631 -3.505,0.781c-1.526,0.149 -3.353,0.509 -4.059,0.8c-0.706,0.291 -2.533,0.703 -4.06,0.916c-1.527,0.212 -3.07,0.543 -3.428,0.734c-0.358,0.192 -2.028,0.512 -3.71,0.711c-1.683,0.199 -4.142,0.602 -5.465,0.895c-1.322,0.293 -4.07,0.709 -6.105,0.924c-2.035,0.215 -4.699,0.555 -5.92,0.754c-1.222,0.199 -5.135,0.535 -8.696,0.746c-3.562,0.211 -9.473,0.56 -13.136,0.775c-4.809,0.283 -7.998,0.277 -11.471,-0.022c-2.646,-0.227 -7.391,-0.584 -10.546,-0.794c-3.154,-0.209 -6.401,-0.548 -7.215,-0.753c-0.814,-0.205 -2.479,-0.524 -3.701,-0.709c-3.235,-0.489 -8.717,-1.826 -9.928,-2.422c-0.576,-0.284 -1.299,-0.515 -1.606,-0.515c-1.173,0 -7.229,-2.336 -10.719,-4.135c-3.195,-1.646 -5.47,-3.048 -9.895,-6.096c-5.323,-3.668 -11.834,-12.744 -12.802,-17.848c-0.197,-1.041 -0.59,-2.351 -0.873,-2.911c-0.282,-0.56 -0.624,-2.14 -0.759,-3.511c-0.353,-3.58 -0.513,-3.839 -1.483,-2.405c-2.049,3.027 -3.668,7.71 -5.246,15.173c-3.423,16.191 9.652,33.829 28.489,38.431c0.798,0.195 1.88,0.577 2.406,0.848c1.167,0.604 6.028,1.641 13.166,2.81c1.424,0.233 3.39,0.569 4.368,0.746c5.908,1.068 36.649,0.705 43.92,-0.519c1.73,-0.291 4.618,-0.638 6.417,-0.772c1.8,-0.134 3.696,-0.405 4.214,-0.602c0.518,-0.197 2.626,-0.592 4.684,-0.878c4.371,-0.608 9.264,-1.537 11.882,-2.259c1.018,-0.28 3.071,-0.682 4.563,-0.893c1.492,-0.211 3.03,-0.554 3.417,-0.761c0.388,-0.208 1.416,-0.52 2.283,-0.695c1.987,-0.399 8.809,-2.126 11.014,-2.787c0.916,-0.274 2.831,-0.85 4.255,-1.279c1.425,-0.428 3.257,-0.936 4.071,-1.127c1.82,-0.428 4.575,-1.314 7.037,-2.264c1.022,-0.394 2.128,-0.716 2.458,-0.716c0.33,0 1.325,-0.329 2.213,-0.732c0.887,-0.403 1.913,-0.736 2.28,-0.74c0.368,-0.004 1.367,-0.322 2.221,-0.706c0.853,-0.384 2.135,-0.822 2.847,-0.973c0.712,-0.15 1.624,-0.502 2.025,-0.782c0.401,-0.279 0.963,-0.507 1.249,-0.507c0.285,0 1.455,-0.394 2.6,-0.876c1.145,-0.482 3.081,-1.243 4.302,-1.693c2.165,-0.797 3.796,-1.446 7.955,-3.167c5.267,-2.178 6.24,-2.588 8.141,-3.425c1.119,-0.493 2.784,-1.225 3.7,-1.627c0.916,-0.401 2.331,-1.036 3.146,-1.41c0.814,-0.375 1.896,-0.863 2.405,-1.085c0.509,-0.221 1.175,-0.546 1.48,-0.721c0.305,-0.175 3.719,-1.873 7.585,-3.775c3.867,-1.901 7.281,-3.653 7.586,-3.892c0.305,-0.239 1.637,-0.903 2.96,-1.474c1.323,-0.571 2.681,-1.271 3.018,-1.554c0.337,-0.283 1.781,-1.128 3.209,-1.877c4.083,-2.142 10.048,-5.625 12.275,-7.167c1.119,-0.775 2.162,-1.409 2.318,-1.41c0.156,0 1.313,-0.749 2.572,-1.665c1.258,-0.916 2.435,-1.665 2.614,-1.665c0.18,0 1.026,-0.573 1.881,-1.274c0.855,-0.7 1.965,-1.453 2.467,-1.673c0.898,-0.393 1.412,-0.758 5.742,-4.084c1.192,-0.916 2.611,-1.915 3.154,-2.22c0.542,-0.305 1.601,-1.055 2.353,-1.665c0.752,-0.611 2.064,-1.655 2.916,-2.321c9.004,-7.037 21.716,-18.567 21.716,-19.697c0,-0.203 0.25,-0.369 0.555,-0.369c0.305,0 0.555,-0.166 0.555,-0.37c0,-0.402 -0.254,-0.425 -1.11,-0.101" id="path0"/>
   <path fill-rule="evenodd" fill="#000000" d="m329.856,93.323c-0.143,0.451 -0.096,0.871 0.106,0.938c0.95,0.317 4.913,3.124 4.913,3.48c0,0.222 1.041,1.451 2.313,2.732c2.344,2.36 3.701,4.243 4.174,5.795c0.144,0.47 0.466,1.105 0.717,1.41c2.218,2.698 3.221,15.052 1.578,19.427c-0.306,0.814 -0.926,2.728 -1.379,4.255c-0.453,1.526 -1.121,3.358 -1.485,4.07c-0.363,0.712 -1.134,2.294 -1.713,3.515c-0.882,1.862 -3.651,6.324 -6.98,11.249c-2.431,3.597 -5.933,7.562 -12.396,14.036c-3.673,3.68 -5.9,5.763 -12.492,11.685c-0.664,0.596 -1.606,1.347 -2.093,1.669c-0.488,0.321 -1.777,1.282 -2.865,2.134c-4.417,3.463 -10.269,7.695 -13.608,9.844c-1.947,1.253 -4.738,3.156 -6.203,4.23c-1.464,1.074 -2.73,1.953 -2.812,1.953c-0.083,0 -1.632,0.912 -3.443,2.027c-3.079,1.897 -3.988,2.41 -8.288,4.682c-0.916,0.484 -2.396,1.354 -3.289,1.933c-0.894,0.579 -2.143,1.226 -2.776,1.438c-0.633,0.212 -1.4,0.59 -1.705,0.841c-0.306,0.25 -1.721,1.023 -3.146,1.718c-1.424,0.694 -3.589,1.781 -4.81,2.415c-2.035,1.057 -9.346,4.558 -11.101,5.315c-0.407,0.176 -2.821,1.228 -5.365,2.339c-4.369,1.906 -5.797,2.498 -10.454,4.327c-1.068,0.42 -2.608,1.064 -3.422,1.431c-3.515,1.586 -4.129,1.833 -5.181,2.083c-0.61,0.146 -1.276,0.393 -1.48,0.55c-0.203,0.157 -1.286,0.537 -2.405,0.846c-1.119,0.309 -3.284,1.013 -4.81,1.566c-1.527,0.552 -3.525,1.217 -4.441,1.477c-3.307,0.94 -12.791,3.795 -13.876,4.178c-1.517,0.536 -6.515,1.762 -9.435,2.316c-1.323,0.251 -2.739,0.662 -3.146,0.913c-0.407,0.251 -1.489,0.563 -2.405,0.693c-0.916,0.13 -2.747,0.471 -4.07,0.757c-4.721,1.022 -8.388,1.725 -12.581,2.413c-2.341,0.384 -5.171,0.87 -6.291,1.081c-13.866,2.606 -45.22,2.692 -54.209,0.147c-1.017,-0.288 -2.974,-0.849 -4.348,-1.248c-1.373,-0.399 -3.626,-1.032 -5.006,-1.407c-1.379,-0.375 -3.586,-1.192 -4.902,-1.815c-1.317,-0.623 -3.477,-1.627 -4.8,-2.231c-12.43,-5.681 -19.445,-21.343 -15.45,-34.495c2.277,-7.493 4.707,-13.919 5.458,-14.431c0.369,-0.252 0.85,-1.85 0.556,-1.85c-0.219,0 -2.141,2.013 -6.689,7.004c-3.508,3.851 -11.997,17.994 -11.997,19.988c0,0.255 -0.241,0.988 -0.536,1.629c-3.361,7.318 -4.221,20.914 -1.593,25.172c0.267,0.433 0.882,1.785 1.368,3.006c1.467,3.687 5.648,8.871 9.252,11.471c0.846,0.611 2.32,1.703 3.276,2.427c2.114,1.601 10.794,5.899 11.915,5.899c0.225,0 1.109,0.314 1.962,0.699c0.854,0.385 2.469,0.821 3.588,0.969c1.119,0.148 2.618,0.493 3.33,0.767c9.44,3.623 43.56,4.443 60.631,1.457c1.76,-0.308 4.052,-0.56 5.095,-0.561c1.043,-0.001 2.595,-0.248 3.449,-0.549c0.854,-0.301 2.998,-0.723 4.765,-0.937c1.766,-0.215 3.711,-0.548 4.321,-0.742c0.611,-0.194 2.942,-0.685 5.18,-1.091c7.42,-1.348 9.964,-1.931 10.711,-2.454c0.407,-0.285 1.055,-0.519 1.44,-0.519c0.903,0 7.671,-1.651 11.716,-2.859c3.335,-0.995 8.696,-2.547 10.546,-3.052c2.141,-0.584 16.658,-5.582 17.344,-5.97c0.382,-0.216 3.296,-1.304 6.476,-2.417c3.18,-1.114 5.94,-2.182 6.134,-2.374c0.193,-0.192 0.616,-0.349 0.939,-0.349c0.323,0 1.248,-0.342 2.054,-0.761c1.412,-0.733 7.728,-3.309 8.113,-3.309c0.103,0 2.063,-0.888 4.356,-1.973c2.292,-1.085 6.131,-2.856 8.531,-3.937c2.4,-1.08 4.731,-2.239 5.181,-2.576c0.732,-0.549 3.235,-1.841 4.702,-2.428c0.305,-0.122 1.221,-0.62 2.035,-1.106c0.814,-0.487 3.228,-1.767 5.365,-2.845c4.783,-2.413 10.481,-5.665 12.211,-6.968c0.713,-0.537 2.378,-1.527 3.701,-2.202c1.322,-0.674 4.033,-2.327 6.023,-3.674c1.99,-1.347 4.58,-3.031 5.755,-3.743c1.175,-0.713 3.043,-2.022 4.152,-2.909c1.109,-0.887 2.379,-1.753 2.824,-1.924c0.444,-0.171 2.382,-1.609 4.307,-3.197c1.925,-1.587 4.44,-3.552 5.589,-4.366c1.818,-1.289 5.52,-4.346 13.147,-10.857c5.342,-4.561 18.83,-19.281 20.32,-22.178c0.286,-0.555 1.321,-2.035 2.301,-3.29c0.979,-1.255 2.044,-2.912 2.365,-3.681c0.322,-0.769 0.958,-1.906 1.415,-2.528c1.841,-2.503 5.065,-10.208 6.356,-15.191c2.457,-9.486 1.782,-16.771 -2.28,-24.607c-1.691,-3.261 -8.049,-10.73 -9.134,-10.73c-0.122,0 -1.432,-0.806 -2.911,-1.791c-1.48,-0.984 -3.19,-2.046 -3.8,-2.359c-2.445,-1.253 -4.551,-2.141 -5.078,-2.141c-0.306,0 -2.12,-0.582 -4.03,-1.293c-4.096,-1.525 -4.99,-1.606 -5.347,-0.481" id="path1"/>
   <path fill-rule="evenodd" fill="#5a5c52" d="m169.103,0.341c0,0.187 -2.152,0.395 -4.782,0.462c-4.359,0.111 -4.86,0.196 -5.667,0.955c-0.783,0.736 -1.27,0.832 -4.226,0.832c-2.872,0 -3.436,0.104 -4.012,0.74c-0.554,0.613 -1.139,0.74 -3.391,0.74c-2.264,0 -2.828,0.125 -3.355,0.74c-0.49,0.572 -1.098,0.742 -2.679,0.749c-1.459,0.006 -2.311,0.215 -2.971,0.731c-0.508,0.398 -1.445,0.728 -2.081,0.732c-2.082,0.015 -3.44,0.445 -3.668,1.163c-0.181,0.568 -0.588,0.696 -2.228,0.696c-1.606,0 -2.099,0.147 -2.469,0.74c-0.345,0.552 -0.863,0.74 -2.039,0.74c-1.065,0 -1.808,0.232 -2.292,0.716c-0.394,0.394 -1.351,0.769 -2.128,0.833c-1.138,0.093 -1.434,0.277 -1.529,0.948c-0.107,0.755 -0.321,0.833 -2.27,0.833c-1.84,0 -2.179,0.107 -2.345,0.74c-0.153,0.586 -0.504,0.74 -1.683,0.74c-1.165,0 -1.541,0.162 -1.725,0.74c-0.182,0.575 -0.559,0.74 -1.69,0.74c-1.194,0 -1.455,0.129 -1.455,0.719c0,0.581 -0.301,0.741 -1.572,0.833c-1.308,0.094 -1.593,0.254 -1.691,0.946c-0.1,0.702 -0.346,0.832 -1.573,0.832c-1.208,0 -1.454,0.126 -1.454,0.741c0,0.619 -0.247,0.74 -1.515,0.74c-1.19,0 -1.555,0.154 -1.703,0.72c-0.135,0.517 -0.569,0.751 -1.538,0.832c-1.076,0.09 -1.374,0.282 -1.468,0.945c-0.1,0.706 -0.345,0.833 -1.607,0.833c-1.178,0 -1.53,0.155 -1.683,0.74c-0.106,0.407 -0.485,0.74 -0.84,0.74c-0.356,0 -1.071,0.333 -1.588,0.74c-0.518,0.407 -1.222,0.74 -1.565,0.74c-0.343,0 -0.706,0.314 -0.806,0.698c-0.124,0.475 -0.644,0.772 -1.631,0.929c-1.12,0.18 -1.448,0.398 -1.448,0.968c0,0.489 -0.248,0.735 -0.74,0.735c-0.493,0 -0.74,0.247 -0.74,0.74c0,0.62 -0.246,0.74 -1.515,0.74c-1.203,0 -1.554,0.152 -1.708,0.74c-0.107,0.41 -0.505,0.741 -0.89,0.741c-0.45,0 -0.697,0.262 -0.697,0.74c0,0.546 -0.247,0.74 -0.943,0.74c-0.53,0 -1.318,0.404 -1.8,0.925c-0.471,0.509 -1.13,0.925 -1.462,0.925c-0.359,0 -0.605,0.301 -0.605,0.74c0,0.493 -0.247,0.74 -0.741,0.74c-0.493,0 -0.74,0.247 -0.74,0.74c0,0.546 -0.246,0.74 -0.942,0.74c-0.531,0 -1.318,0.405 -1.8,0.925c-0.472,0.509 -1.13,0.925 -1.463,0.925c-0.358,0 -0.605,0.302 -0.605,0.74c0,0.494 -0.247,0.74 -0.74,0.74c-0.493,0 -0.74,0.247 -0.74,0.74c0,0.505 -0.247,0.74 -0.775,0.74c-0.463,0 -0.852,0.298 -0.968,0.74c-0.107,0.41 -0.505,0.74 -0.89,0.74c-0.497,0 -0.697,0.266 -0.697,0.926c0,0.741 -0.185,0.925 -0.929,0.925c-0.511,0 -1.214,0.333 -1.562,0.74c-0.349,0.407 -0.841,0.74 -1.094,0.74c-0.253,0 -0.632,0.321 -0.842,0.715c-0.211,0.393 -0.716,0.82 -1.123,0.95c-0.408,0.129 -0.741,0.489 -0.741,0.8c0,0.31 -0.333,0.651 -0.74,0.758c-0.409,0.107 -0.74,0.505 -0.74,0.89c0,0.442 -0.261,0.697 -0.715,0.697c-0.393,0 -0.821,0.333 -0.95,0.74c-0.129,0.407 -0.478,0.74 -0.774,0.74c-0.297,0 -0.698,0.416 -0.891,0.925c-0.194,0.509 -0.606,0.925 -0.916,0.925c-0.318,0 -0.564,0.324 -0.564,0.74c0,0.494 -0.247,0.74 -0.74,0.74c-0.494,0 -0.74,0.247 -0.74,0.741c0,0.417 -0.247,0.74 -0.567,0.74c-0.312,0 -0.674,0.291 -0.805,0.647c-0.131,0.356 -0.625,1.014 -1.098,1.463c-0.474,0.448 -0.861,1.239 -0.861,1.757c0,0.696 -0.193,0.943 -0.74,0.943c-0.493,0 -0.74,0.247 -0.74,0.74c0,0.543 -0.246,0.74 -0.925,0.74c-0.659,0 -0.925,0.2 -0.925,0.697c0,0.386 -0.33,0.783 -0.74,0.89c-0.407,0.107 -0.74,0.448 -0.74,0.759c0,0.31 -0.333,0.67 -0.74,0.799c-0.407,0.129 -0.74,0.517 -0.74,0.861c0,0.345 -0.333,0.834 -0.74,1.089c-0.466,0.29 -0.74,0.862 -0.74,1.543c0,0.839 -0.186,1.108 -0.833,1.199c-0.535,0.076 -0.875,0.416 -0.951,0.951c-0.076,0.535 -0.373,0.833 -0.832,0.833c-0.435,0 -0.714,0.254 -0.714,0.651c0,0.358 -0.333,0.859 -0.741,1.113c-0.472,0.295 -0.74,0.863 -0.74,1.569c0,0.86 -0.164,1.107 -0.74,1.107c-0.542,0 -0.74,0.247 -0.74,0.925c0,0.677 -0.197,0.925 -0.735,0.925c-0.573,0 -0.789,0.329 -0.973,1.48c-0.178,1.116 -0.407,1.48 -0.929,1.48c-0.483,0 -0.693,0.267 -0.693,0.882c0,0.571 -0.261,0.951 -0.74,1.076c-0.563,0.147 -0.74,0.505 -0.74,1.497c0,1.071 -0.149,1.326 -0.833,1.423c-0.64,0.091 -0.859,0.399 -0.949,1.332c-0.068,0.705 -0.417,1.403 -0.833,1.662c-0.393,0.246 -0.715,0.729 -0.715,1.073c0,0.345 -0.333,0.732 -0.74,0.861c-0.547,0.174 -0.74,0.56 -0.74,1.48c0,0.921 -0.194,1.307 -0.74,1.48c-0.575,0.183 -0.741,0.56 -0.741,1.69c0,1.182 -0.131,1.456 -0.7,1.456c-0.764,0 -1.15,0.685 -1.15,2.04c0,0.545 -0.276,0.958 -0.74,1.105c-0.569,0.181 -0.74,0.56 -0.74,1.647c0,1.101 -0.163,1.454 -0.74,1.605c-0.583,0.153 -0.74,0.505 -0.74,1.665c0,1.161 -0.156,1.513 -0.74,1.666c-0.576,0.15 -0.741,0.507 -0.746,1.615c-0.005,1.029 -0.261,1.664 -0.925,2.294c-0.663,0.628 -0.919,1.261 -0.919,2.27c0,1.086 -0.165,1.441 -0.74,1.591c-0.638,0.167 -0.74,0.505 -0.74,2.449c0,2.008 -0.081,2.254 -0.74,2.254c-0.629,0 -0.74,0.247 -0.74,1.647c0,0.993 -0.199,1.764 -0.501,1.943c-0.87,0.513 -1.349,1.85 -1.349,3.762c0,1.524 -0.131,1.89 -0.741,2.084c-0.629,0.2 -0.74,0.56 -0.74,2.417c0,1.804 -0.128,2.251 -0.74,2.578c-0.643,0.345 -0.74,0.775 -0.74,3.301c0,2.592 -0.079,2.924 -0.74,3.097c-0.678,0.177 -0.74,0.505 -0.74,3.929c0,3.1 -0.096,3.734 -0.564,3.734c-0.916,0 -1.286,1.655 -1.286,5.76c0,2.327 -0.147,3.861 -0.37,3.861c-0.243,0 -0.37,8.017 -0.37,23.312c0,15.294 0.127,23.312 0.37,23.312c0.222,0 0.37,1.464 0.37,3.654c0,4.525 0.254,5.88 1.154,6.165c0.62,0.197 0.696,0.623 0.696,3.872c0,3.325 0.066,3.671 0.74,3.885c0.645,0.205 0.74,0.56 0.74,2.77c0,2.862 0.22,3.705 0.965,3.705c0.384,0 0.515,0.575 0.515,2.255c0,1.944 0.103,2.282 0.74,2.449c0.632,0.165 0.741,0.504 0.741,2.316c0,1.752 0.161,2.298 0.925,3.121c0.698,0.754 0.925,1.402 0.925,2.645c0,1.399 0.111,1.646 0.74,1.646c0.649,0 0.74,0.246 0.74,2.022c0,1.643 0.138,2.096 0.74,2.418c0.512,0.274 0.74,0.775 0.74,1.624c0,0.797 0.325,1.578 0.925,2.226c0.656,0.708 0.925,1.416 0.925,2.435c0,1.111 0.167,1.489 0.74,1.67c0.572,0.182 0.74,0.56 0.74,1.666c0,1.105 0.168,1.483 0.74,1.665c0.556,0.176 0.74,0.56 0.74,1.539c0,0.982 0.179,1.352 0.72,1.494c0.517,0.135 0.752,0.568 0.833,1.537c0.082,0.982 0.34,1.45 0.945,1.715c0.651,0.286 0.832,0.669 0.832,1.758c0,1.146 0.132,1.392 0.741,1.392c0.602,0 0.74,0.247 0.74,1.33c0,1.019 0.173,1.375 0.74,1.523c0.449,0.118 0.74,0.505 0.74,0.987c0,0.436 0.321,0.994 0.714,1.239c0.393,0.245 0.767,0.91 0.833,1.476c0.073,0.642 0.432,1.169 0.95,1.396c0.626,0.275 0.833,0.674 0.833,1.608c0,0.93 0.185,1.29 0.74,1.435c0.41,0.107 0.74,0.505 0.74,0.89c0,0.435 0.261,0.697 0.693,0.697c0.525,0 0.751,0.368 0.935,1.518c0.173,1.077 0.454,1.573 0.973,1.708c0.401,0.105 0.729,0.505 0.729,0.888c0,0.45 0.262,0.697 0.74,0.697c0.603,0 0.74,0.246 0.74,1.329c0,1.019 0.174,1.376 0.74,1.524c0.426,0.111 0.741,0.504 0.741,0.925c0,0.42 0.314,0.814 0.74,0.925c0.409,0.107 0.74,0.505 0.74,0.89c0,0.497 0.265,0.697 0.925,0.697c0.808,0 0.925,0.161 0.925,1.282c0,0.904 0.218,1.399 0.74,1.678c0.407,0.218 0.74,0.724 0.74,1.124c0,0.48 0.251,0.727 0.74,0.727c0.493,0 0.74,0.246 0.74,0.74c0,0.484 0.247,0.74 0.714,0.74c0.459,0 0.757,0.297 0.833,0.832c0.076,0.535 0.416,0.875 0.951,0.951c0.535,0.076 0.832,0.374 0.832,0.833c0,0.467 0.256,0.714 0.74,0.714c0.499,0 0.74,0.247 0.74,0.757c0,0.416 0.417,1.173 0.925,1.682c0.509,0.509 0.926,1.167 0.926,1.463c0,0.296 0.333,0.538 0.74,0.538c0.504,0 0.74,0.247 0.74,0.775c0,0.463 0.297,0.852 0.74,0.968c0.407,0.107 0.74,0.44 0.74,0.74c0,0.301 0.333,0.634 0.74,0.74c0.407,0.107 0.74,0.346 0.74,0.533c0,0.466 2.475,2.905 2.948,2.905c0.21,0 0.382,0.333 0.382,0.74c0,0.478 0.247,0.74 0.697,0.74c0.386,0 0.783,0.33 0.89,0.74c0.107,0.407 0.448,0.74 0.759,0.74c0.31,0 0.67,0.333 0.799,0.74c0.13,0.407 0.408,0.74 0.619,0.74c0.212,0 0.879,0.416 1.484,0.925c0.605,0.509 1.42,0.925 1.811,0.925c0.465,0 0.712,0.257 0.712,0.74c0,0.494 0.246,0.74 0.74,0.74c0.493,0 0.74,0.247 0.74,0.74c0,0.543 0.246,0.74 0.925,0.74c0.692,0 0.925,0.196 0.925,0.775c0,0.451 0.295,0.852 0.706,0.959c0.388,0.102 0.789,0.503 0.89,0.891c0.108,0.411 0.509,0.706 0.959,0.706c0.427,0 0.775,0.232 0.775,0.515c0,0.597 0.788,0.965 2.066,0.965c0.707,0 0.894,0.193 0.894,0.925c0,0.678 0.198,0.925 0.74,0.925c0.494,0 0.741,0.247 0.741,0.74c0,0.489 0.246,0.74 0.727,0.74c0.399,0 0.905,0.333 1.123,0.74c0.279,0.522 0.774,0.74 1.678,0.74c1.035,0 1.282,0.143 1.282,0.74c0,0.494 0.247,0.74 0.74,0.74c0.407,0 0.74,0.244 0.74,0.542c0,0.682 1.14,1.308 2.381,1.308c0.703,0 0.949,0.193 0.949,0.741c0,0.478 0.247,0.74 0.697,0.74c0.386,0 0.783,0.33 0.891,0.74c0.146,0.561 0.504,0.74 1.48,0.74c0.975,0 1.333,0.179 1.48,0.74c0.106,0.407 0.451,0.74 0.766,0.74c0.315,0 0.989,0.416 1.498,0.925c0.509,0.509 1.266,0.925 1.682,0.925c0.416,0 0.757,0.232 0.757,0.515c0,0.623 0.797,0.965 2.25,0.965c0.834,0 1.08,0.169 1.08,0.74c0,0.615 0.247,0.74 1.455,0.74c1.226,0 1.472,0.131 1.572,0.833c0.098,0.692 0.384,0.851 1.691,0.946c1.271,0.092 1.573,0.252 1.573,0.833c0,0.588 0.261,0.718 1.437,0.718c1.125,0 1.478,0.161 1.63,0.74c0.154,0.588 0.505,0.741 1.708,0.741c1.268,0 1.515,0.12 1.515,0.74c0,0.616 0.247,0.74 1.48,0.74c1.053,0 1.48,0.156 1.48,0.542c0,0.664 1.131,1.308 2.299,1.308c0.477,0 1.152,0.333 1.501,0.74c0.477,0.557 1.091,0.74 2.487,0.74c1.607,0 1.854,0.098 1.854,0.74c0,0.627 0.247,0.74 1.622,0.74c1.311,0 1.659,0.142 1.815,0.74c0.165,0.629 0.505,0.74 2.264,0.74c1.138,0 2.07,0.155 2.07,0.344c0,0.873 1.249,1.506 2.973,1.506c1.432,0 1.894,0.155 2.207,0.74c0.326,0.61 0.775,0.74 2.546,0.74c1.68,0 2.296,0.162 2.819,0.74c0.527,0.582 1.14,0.74 2.866,0.74c1.824,0 2.309,0.14 2.863,0.824c0.562,0.694 1.117,0.846 3.544,0.968c2.164,0.11 3.063,0.318 3.625,0.842c0.615,0.573 1.327,0.697 4.008,0.697c1.927,0 3.261,0.151 3.261,0.37c0,0.244 14.493,0.37 42.738,0.37c28.246,0 42.738,-0.126 42.738,-0.37c0,-0.219 1.34,-0.37 3.281,-0.37c2.72,0 3.441,-0.127 4.221,-0.74c0.704,-0.554 1.501,-0.74 3.171,-0.74c2.582,0 4.128,-0.482 4.128,-1.286c0,-0.446 0.49,-0.565 2.336,-0.565c1.824,0 2.509,-0.162 3.13,-0.74c0.615,-0.573 1.305,-0.74 3.064,-0.74c1.959,0 2.297,-0.101 2.464,-0.74c0.16,-0.61 0.505,-0.74 1.97,-0.74c2.253,0 2.948,-0.271 2.948,-1.149c0,-0.603 0.285,-0.701 2.032,-0.701c1.631,0 2.123,-0.146 2.494,-0.74c0.332,-0.532 0.863,-0.74 1.888,-0.74c1.114,0 1.468,-0.162 1.619,-0.74c0.156,-0.595 0.505,-0.74 1.785,-0.74c1.945,0 2.763,-0.286 2.763,-0.965c0,-0.323 0.403,-0.515 1.079,-0.515c1.562,0 2.251,-0.352 2.251,-1.15c0,-0.573 0.275,-0.7 1.515,-0.7c1.203,0 1.554,-0.152 1.708,-0.74c0.151,-0.58 0.505,-0.74 1.63,-0.74c1.191,0 1.437,-0.128 1.437,-0.741c0,-0.619 0.247,-0.74 1.515,-0.74c1.189,0 1.555,-0.154 1.703,-0.72c0.135,-0.517 0.569,-0.751 1.538,-0.832c1.076,-0.09 1.374,-0.282 1.468,-0.945c0.102,-0.721 0.339,-0.833 1.758,-0.833c1.392,0 1.639,-0.111 1.639,-0.74c0,-0.603 0.247,-0.74 1.33,-0.74c1.018,0 1.375,-0.173 1.523,-0.74c0.106,-0.407 0.416,-0.74 0.688,-0.74c0.89,0 2.379,-0.848 2.379,-1.355c0,-0.282 0.399,-0.495 0.925,-0.495c0.679,0 0.926,-0.198 0.926,-0.74c0,-0.613 0.246,-0.74 1.436,-0.74c1.126,0 1.479,-0.161 1.631,-0.74c0.116,-0.443 0.505,-0.74 0.968,-0.74c0.528,0 0.775,-0.236 0.775,-0.74c0,-0.572 0.247,-0.741 1.084,-0.741c1.048,0 2.246,-0.803 2.246,-1.506c0,-0.189 0.333,-0.344 0.74,-0.344c0.494,0 0.74,-0.246 0.74,-0.74c0,-0.536 0.247,-0.74 0.895,-0.74c1.277,0 2.065,-0.368 2.065,-0.964c0,-0.284 0.349,-0.516 0.775,-0.516c0.451,0 0.852,-0.295 0.959,-0.706c0.102,-0.388 0.503,-0.789 0.891,-0.89c0.411,-0.108 0.706,-0.508 0.706,-0.959c0,-0.614 0.23,-0.775 1.107,-0.775c0.706,0 1.274,-0.268 1.569,-0.74c0.254,-0.407 0.744,-0.74 1.088,-0.74c0.344,0 0.726,-0.315 0.848,-0.7c0.123,-0.385 0.55,-0.786 0.95,-0.891c0.432,-0.113 0.728,-0.506 0.728,-0.965c0,-0.528 0.236,-0.775 0.74,-0.775c0.494,0 0.74,-0.246 0.74,-0.74c0,-0.542 0.247,-0.74 0.925,-0.74c0.679,0 0.925,-0.197 0.925,-0.74c0,-0.499 0.247,-0.74 0.758,-0.74c0.417,0 1.125,-0.387 1.573,-0.86c0.448,-0.473 1.106,-0.967 1.462,-1.098c0.356,-0.131 0.648,-0.494 0.648,-0.805c0,-0.32 0.322,-0.567 0.74,-0.567c0.493,0 0.74,-0.247 0.74,-0.74c0,-0.504 0.247,-0.74 0.775,-0.74c0.451,0 0.851,-0.295 0.959,-0.706c0.101,-0.388 0.502,-0.789 0.89,-0.89c0.389,-0.102 0.706,-0.439 0.706,-0.75c0,-0.31 0.333,-0.67 0.74,-0.799c0.407,-0.13 0.74,-0.557 0.74,-0.95c0,-0.469 0.256,-0.715 0.74,-0.715c0.407,0 0.74,-0.231 0.74,-0.513c0,-0.282 0.417,-0.785 0.925,-1.119c0.509,-0.333 0.926,-0.852 0.926,-1.152c0,-0.301 0.254,-0.547 0.566,-0.547c0.312,0 0.673,-0.291 0.803,-0.647c0.13,-0.356 0.625,-1.045 1.099,-1.531c0.474,-0.485 0.862,-1.193 0.862,-1.572c0,-0.443 0.264,-0.69 0.74,-0.69c0.493,0 0.74,-0.247 0.74,-0.74c0,-0.493 0.247,-0.74 0.74,-0.74c0.543,0 0.74,-0.247 0.74,-0.925c0,-0.679 0.197,-0.925 0.74,-0.925c0.493,0 0.74,-0.247 0.74,-0.74c0,-0.491 0.247,-0.74 0.733,-0.74c0.473,0 0.815,-0.328 0.965,-0.925c0.128,-0.509 0.462,-0.926 0.743,-0.926c0.31,0 0.604,-0.582 0.747,-1.48c0.179,-1.115 0.408,-1.48 0.93,-1.48c0.446,0 0.692,-0.263 0.692,-0.74c0,-0.493 0.247,-0.74 0.741,-0.74c0.533,0 0.74,-0.247 0.74,-0.882c0,-0.56 0.26,-0.95 0.715,-1.069c0.471,-0.123 0.801,-0.644 0.966,-1.523c0.183,-0.975 0.44,-1.336 0.95,-1.336c0.438,0 0.699,-0.261 0.699,-0.697c0,-0.386 0.33,-0.783 0.74,-0.891c0.588,-0.153 0.74,-0.504 0.74,-1.708c0,-1.369 0.089,-1.515 0.925,-1.515c0.636,0 0.925,-0.203 0.925,-0.651c0,-0.358 0.333,-0.859 0.74,-1.113c0.461,-0.288 0.74,-0.863 0.74,-1.526c0,-0.752 0.217,-1.12 0.74,-1.257c0.539,-0.141 0.74,-0.505 0.74,-1.335c0,-0.741 0.26,-1.304 0.74,-1.604c0.407,-0.254 0.74,-0.838 0.74,-1.298c0,-0.577 0.22,-0.836 0.708,-0.836c0.534,0 0.767,-0.354 0.951,-1.444c0.168,-0.989 0.469,-1.503 0.958,-1.631c0.535,-0.139 0.714,-0.514 0.714,-1.491c0,-0.98 0.184,-1.363 0.74,-1.54c0.574,-0.182 0.74,-0.56 0.74,-1.69c0,-1.208 0.125,-1.455 0.74,-1.455c0.617,0 0.74,-0.247 0.74,-1.48c0,-0.814 0.154,-1.48 0.343,-1.48c0.681,0 1.507,-1.183 1.507,-2.158c0,-0.594 0.298,-1.181 0.74,-1.457c0.513,-0.32 0.74,-0.863 0.74,-1.769c0,-0.796 0.29,-1.618 0.74,-2.102c0.472,-0.506 0.74,-1.306 0.74,-2.205c0,-0.775 0.155,-1.41 0.344,-1.41c0.867,0 1.506,-1.25 1.506,-2.944c0,-1.469 0.13,-1.814 0.74,-1.974c0.588,-0.153 0.74,-0.504 0.74,-1.708c0,-1.021 0.242,-1.756 0.741,-2.255c0.588,-0.588 0.74,-1.233 0.74,-3.145c0,-2.158 0.075,-2.405 0.74,-2.405c0.664,0 0.74,-0.247 0.74,-2.405c0,-1.909 0.116,-2.406 0.564,-2.406c0.783,0 1.286,-1.529 1.286,-3.909c0,-1.518 0.181,-2.193 0.74,-2.751c0.63,-0.63 0.74,-1.233 0.74,-4.07c0,-1.974 0.151,-3.331 0.37,-3.331c0.244,0 0.37,-11.285 0.37,-33.117c0,-21.832 -0.126,-33.118 -0.37,-33.118c-0.219,0 -0.37,-1.346 -0.37,-3.3c0,-3.613 -0.185,-4.47 -0.965,-4.47c-0.376,0 -0.515,-0.536 -0.515,-1.989c0,-2.873 -0.352,-4.246 -1.154,-4.501c-0.58,-0.184 -0.696,-0.593 -0.696,-2.45c0,-1.919 -0.104,-2.257 -0.74,-2.424c-0.632,-0.165 -0.74,-0.504 -0.74,-2.32c0,-1.567 -0.195,-2.375 -0.74,-3.068c-0.467,-0.593 -0.741,-1.501 -0.741,-2.455c0,-1.268 -0.12,-1.515 -0.74,-1.515c-0.623,0 -0.74,-0.248 -0.745,-1.572c-0.007,-2.285 -0.345,-3.238 -1.148,-3.238c-0.579,0 -0.697,-0.281 -0.697,-1.662c0,-1.261 -0.178,-1.773 -0.74,-2.124c-0.488,-0.305 -0.74,-0.863 -0.74,-1.638c0,-1.545 -0.329,-2.347 -0.965,-2.347c-0.322,0 -0.515,-0.403 -0.515,-1.079c0,-1.562 -0.352,-2.251 -1.15,-2.251c-0.573,0 -0.7,-0.275 -0.7,-1.515c0,-1.203 -0.152,-1.554 -0.74,-1.708c-0.58,-0.152 -0.74,-0.505 -0.74,-1.63c0,-1.191 -0.127,-1.437 -0.74,-1.437c-0.613,0 -0.74,-0.247 -0.74,-1.437c0,-1.091 -0.166,-1.481 -0.69,-1.618c-0.449,-0.117 -0.781,-0.664 -0.95,-1.564c-0.173,-0.922 -0.498,-1.446 -0.975,-1.571c-0.394,-0.103 -0.716,-0.424 -0.716,-0.714c0,-0.291 -0.333,-0.885 -0.74,-1.322c-0.407,-0.437 -0.74,-1.263 -0.74,-1.835c0,-0.793 -0.175,-1.04 -0.74,-1.04c-0.536,0 -0.74,-0.247 -0.74,-0.895c0,-1.26 -0.366,-2.065 -0.939,-2.065c-0.269,0 -0.543,-0.375 -0.608,-0.833c-0.076,-0.535 -0.415,-0.875 -0.951,-0.951c-0.683,-0.097 -0.832,-0.351 -0.832,-1.422c0,-0.993 -0.177,-1.35 -0.74,-1.498c-0.425,-0.111 -0.74,-0.504 -0.74,-0.925c0,-0.408 -0.312,-0.813 -0.705,-0.916c-0.455,-0.119 -0.792,-0.646 -0.95,-1.486c-0.159,-0.848 -0.494,-1.367 -0.96,-1.489c-0.393,-0.103 -0.715,-0.501 -0.715,-0.884c0,-0.451 -0.262,-0.697 -0.74,-0.697c-0.543,0 -0.741,-0.247 -0.741,-0.925c0,-0.679 -0.197,-0.925 -0.74,-0.925c-0.53,0 -0.74,-0.247 -0.74,-0.871c0,-0.479 -0.416,-1.321 -0.925,-1.87c-0.509,-0.549 -0.925,-1.144 -0.925,-1.324c0,-0.179 -0.333,-0.432 -0.74,-0.561c-0.407,-0.129 -0.74,-0.556 -0.74,-0.95c0,-0.468 -0.255,-0.715 -0.74,-0.715c-0.493,0 -0.74,-0.247 -0.74,-0.74c0,-0.493 -0.247,-0.74 -0.74,-0.74c-0.493,0 -0.74,-0.247 -0.74,-0.74c0,-0.493 -0.247,-0.74 -0.74,-0.74c-0.537,0 -0.74,-0.247 -0.74,-0.898c0,-0.518 -0.392,-1.207 -0.925,-1.626c-0.509,-0.4 -0.925,-0.903 -0.925,-1.116c0,-0.214 -0.303,-0.606 -0.672,-0.872c-0.37,-0.266 -0.781,-0.775 -0.914,-1.131c-0.133,-0.356 -0.485,-0.648 -0.783,-0.648c-0.298,0 -0.645,-0.324 -0.771,-0.721c-0.125,-0.396 -0.535,-0.818 -0.91,-0.937c-0.374,-0.119 -0.766,-0.544 -0.871,-0.944c-0.105,-0.4 -0.436,-0.728 -0.737,-0.728c-0.301,0 -0.634,-0.333 -0.74,-0.74c-0.107,-0.407 -0.459,-0.74 -0.783,-0.74c-0.325,0 -0.59,-0.253 -0.59,-0.563c0,-0.31 -0.402,-0.746 -0.894,-0.97c-0.491,-0.224 -0.975,-0.72 -1.075,-1.102c-0.1,-0.382 -0.447,-0.695 -0.772,-0.695c-0.324,0 -0.589,-0.239 -0.589,-0.53c0,-0.292 -0.375,-0.649 -0.833,-0.793c-0.458,-0.145 -1.05,-0.573 -1.316,-0.95c-0.266,-0.378 -0.879,-0.687 -1.362,-0.687c-0.629,0 -0.912,-0.237 -0.996,-0.833c-0.076,-0.535 -0.416,-0.875 -0.951,-0.951c-0.535,-0.076 -0.833,-0.373 -0.833,-0.832c0,-0.468 -0.255,-0.715 -0.74,-0.715c-0.493,0 -0.74,-0.246 -0.74,-0.74c0,-0.484 -0.246,-0.74 -0.715,-0.74c-0.393,0 -0.821,-0.333 -0.95,-0.74c-0.129,-0.407 -0.537,-0.74 -0.907,-0.74c-0.369,0 -0.756,-0.322 -0.859,-0.715c-0.123,-0.471 -0.644,-0.802 -1.523,-0.967c-0.975,-0.183 -1.336,-0.439 -1.336,-0.949c0,-0.438 -0.261,-0.699 -0.697,-0.699c-0.386,0 -0.783,-0.331 -0.891,-0.74c-0.111,-0.425 -0.504,-0.74 -0.925,-0.74c-0.412,0 -0.813,-0.313 -0.918,-0.716c-0.123,-0.471 -0.645,-0.801 -1.524,-0.966c-0.974,-0.183 -1.336,-0.44 -1.336,-0.95c0,-0.462 -0.262,-0.698 -0.774,-0.698c-0.464,0 -0.853,-0.298 -0.969,-0.741c-0.151,-0.579 -0.504,-0.74 -1.63,-0.74c-1.19,0 -1.437,-0.127 -1.437,-0.74c0,-0.504 -0.247,-0.74 -0.775,-0.74c-0.464,0 -0.852,-0.297 -0.969,-0.742c-0.137,-0.524 -0.617,-0.811 -1.63,-0.973c-1.075,-0.172 -1.436,-0.404 -1.436,-0.922c0,-0.446 -0.264,-0.693 -0.741,-0.693c-0.407,0 -1.073,-0.333 -1.48,-0.74c-0.407,-0.407 -1.156,-0.74 -1.665,-0.74c-0.678,0 -0.925,-0.197 -0.925,-0.74c0,-0.615 -0.247,-0.74 -1.454,-0.74c-1.227,0 -1.473,-0.131 -1.573,-0.833c-0.098,-0.692 -0.383,-0.851 -1.691,-0.946c-1.271,-0.092 -1.572,-0.252 -1.572,-0.833c0,-0.592 -0.262,-0.718 -1.48,-0.718c-1.234,0 -1.481,-0.124 -1.481,-0.74c0,-0.629 -0.246,-0.741 -1.639,-0.741c-1.418,0 -1.655,-0.112 -1.758,-0.832c-0.094,-0.664 -0.391,-0.855 -1.467,-0.945c-0.97,-0.081 -1.403,-0.316 -1.538,-0.833c-0.148,-0.565 -0.514,-0.72 -1.703,-0.72c-1.269,0 -1.515,-0.12 -1.515,-0.74c0,-0.627 -0.247,-0.74 -1.622,-0.74c-1.311,0 -1.659,-0.142 -1.816,-0.74c-0.163,-0.624 -0.504,-0.74 -2.175,-0.74c-1.701,0 -2.034,-0.118 -2.348,-0.833c-0.26,-0.593 -0.736,-0.865 -1.66,-0.945c-0.712,-0.063 -1.5,-0.382 -1.751,-0.709c-0.284,-0.372 -1.213,-0.659 -2.466,-0.763c-1.574,-0.13 -2.049,-0.318 -2.192,-0.863c-0.153,-0.587 -0.54,-0.697 -2.437,-0.697c-1.774,0 -2.255,-0.121 -2.255,-0.565c0,-0.732 -1.492,-1.285 -3.469,-1.285c-1.06,0 -1.83,-0.241 -2.366,-0.741c-0.605,-0.563 -1.306,-0.74 -2.941,-0.74c-1.746,0 -2.233,-0.138 -2.609,-0.74c-0.396,-0.633 -0.863,-0.74 -3.25,-0.74c-2.276,0 -2.933,-0.135 -3.581,-0.74c-0.676,-0.629 -1.306,-0.74 -4.219,-0.74c-3.132,0 -3.475,-0.071 -4.008,-0.832c-0.544,-0.778 -0.899,-0.841 -5.386,-0.963c-2.642,-0.071 -4.804,-0.279 -4.804,-0.462c0,-0.195 -13.222,-0.333 -31.822,-0.333c-19.137,0 -31.822,0.136 -31.822,0.341m53.284,3.314c0.915,0.212 4.266,0.559 7.446,0.771c3.18,0.211 6.47,0.627 7.312,0.924c0.842,0.297 2.819,0.645 4.394,0.773c1.576,0.128 3.822,0.551 4.993,0.94c1.171,0.389 2.885,0.708 3.808,0.708c0.923,0 2.296,0.309 3.051,0.688c0.755,0.379 2.326,0.782 3.491,0.897c1.165,0.115 2.493,0.472 2.95,0.792c0.458,0.321 1.426,0.583 2.152,0.583c0.725,0 1.947,0.32 2.714,0.711c0.767,0.391 2.092,0.829 2.944,0.973c0.852,0.144 2.131,0.573 2.841,0.954c0.71,0.381 1.71,0.693 2.222,0.694c0.512,0.002 1.43,0.334 2.041,0.738c0.61,0.404 1.476,0.736 1.923,0.738c0.447,0.001 1.596,0.418 2.552,0.927c0.957,0.509 1.966,0.925 2.242,0.925c0.275,0 1.122,0.333 1.882,0.74c0.759,0.407 1.654,0.74 1.988,0.74c0.334,0 0.815,0.25 1.068,0.555c0.254,0.306 0.653,0.555 0.888,0.555c0.234,0 1.421,0.495 2.637,1.099c1.216,0.604 2.377,1.107 2.581,1.118c0.203,0.011 0.786,0.346 1.295,0.744c0.509,0.398 1.205,0.727 1.546,0.732c0.342,0.004 0.841,0.225 1.11,0.49c0.269,0.264 1.777,1.139 3.351,1.942c4.688,2.394 5.021,2.6 6.154,3.813c0.598,0.64 0.978,1.164 0.846,1.166c-0.583,0.005 1.935,1.096 3.745,1.622c1.094,0.318 2.294,0.915 2.667,1.327c0.372,0.412 0.811,0.749 0.973,0.749c0.323,0 2.776,1.554 3.643,2.307c0.296,0.257 1.35,0.994 2.342,1.638c0.993,0.644 2.343,1.66 3.002,2.26c0.658,0.599 2.019,1.655 3.024,2.346c1.005,0.691 2.173,1.589 2.595,1.995c1.414,1.36 4.788,4.418 7.347,6.66c1.394,1.221 2.719,2.422 2.944,2.668c13.695,14.997 29.081,43.677 35.689,66.527c3.73,12.901 5.281,20.249 6.949,32.933c0.763,5.801 1.136,32.56 0.556,39.9c-1.321,16.717 -4.973,33.14 -11.163,50.201c-2.364,6.517 -2.377,6.548 -4.57,11.39c-16.535,36.503 -40.634,64.283 -73.966,85.262c-6.899,4.343 -22.837,12.329 -30.712,15.39c-5.852,2.275 -9.055,3.347 -18.951,6.347c-1.233,0.374 -5.299,1.401 -10.361,2.617c-6.906,1.66 -60.905,2.258 -66.235,0.733c-1.423,-0.407 -3.67,-0.747 -4.994,-0.756c-1.323,-0.009 -3.072,-0.273 -3.886,-0.588c-0.814,-0.315 -2.812,-0.773 -4.441,-1.019c-1.628,-0.246 -3.306,-0.638 -3.728,-0.871c-0.423,-0.233 -1.672,-0.529 -2.776,-0.659c-1.103,-0.13 -2.786,-0.556 -3.74,-0.946c-0.953,-0.391 -2.286,-0.712 -2.96,-0.713c-0.675,-0.002 -1.726,-0.334 -2.337,-0.738c-0.61,-0.404 -1.612,-0.736 -2.225,-0.738c-0.614,-0.001 -1.696,-0.311 -2.406,-0.688c-0.709,-0.377 -1.881,-0.795 -2.605,-0.928c-0.724,-0.134 -1.966,-0.574 -2.761,-0.98c-0.795,-0.405 -1.841,-0.736 -2.326,-0.736c-0.485,0 -1.304,-0.333 -1.822,-0.74c-0.517,-0.407 -1.21,-0.746 -1.538,-0.752c-0.329,-0.006 -1.43,-0.421 -2.448,-0.922c-1.018,-0.5 -2.067,-0.911 -2.332,-0.913c-0.265,-0.002 -1.181,-0.365 -2.035,-0.807c-0.854,-0.442 -1.803,-0.915 -2.109,-1.052c-0.305,-0.137 -0.888,-0.424 -1.295,-0.637c-0.407,-0.214 -2.539,-1.269 -4.737,-2.345c-2.199,-1.077 -4.071,-2.075 -4.16,-2.219c-0.089,-0.144 -0.608,-0.374 -1.153,-0.511c-0.546,-0.137 -1.402,-0.572 -1.904,-0.966c-0.501,-0.395 -1.202,-0.717 -1.556,-0.717c-0.355,0 -0.848,-0.245 -1.096,-0.543c-0.415,-0.501 -3.597,-2.47 -6.416,-3.97c-0.649,-0.346 -1.346,-0.769 -1.549,-0.941c-0.8,-0.675 -3.847,-2.687 -4.071,-2.687c-0.13,0 -1.027,-0.666 -1.992,-1.48c-0.966,-0.814 -1.929,-1.48 -2.14,-1.48c-0.212,0 -0.867,-0.42 -1.457,-0.932c-0.589,-0.513 -1.321,-1.147 -1.626,-1.409c-0.305,-0.262 -1.499,-1.091 -2.652,-1.842c-1.153,-0.751 -2.152,-1.495 -2.22,-1.653c-0.068,-0.158 -1.947,-1.782 -4.175,-3.609c-6.597,-5.408 -17.373,-15.987 -20,-19.634c-1.179,-1.636 -4.317,-5.374 -5.828,-6.943c-0.763,-0.792 -1.388,-1.604 -1.388,-1.805c0,-0.2 -0.423,-0.888 -0.941,-1.528c-0.517,-0.64 -1.225,-1.548 -1.572,-2.019c-0.348,-0.471 -0.924,-1.132 -1.28,-1.47c-0.356,-0.338 -0.647,-0.814 -0.647,-1.058c0,-0.245 -0.417,-0.939 -0.925,-1.544c-0.509,-0.605 -0.925,-1.243 -0.925,-1.42c0,-0.176 -0.333,-0.528 -0.74,-0.782c-0.407,-0.254 -0.74,-0.768 -0.74,-1.142c0,-0.373 -0.333,-0.981 -0.741,-1.349c-0.407,-0.368 -0.74,-0.892 -0.74,-1.164c0,-0.272 -0.333,-0.703 -0.74,-0.957c-0.407,-0.254 -0.74,-0.718 -0.74,-1.031c0,-0.313 -0.291,-0.98 -0.647,-1.483c-0.984,-1.389 -3.779,-6.31 -4.355,-7.668c-0.281,-0.662 -0.672,-1.203 -0.87,-1.203c-0.198,0 -0.475,-0.541 -0.617,-1.202c-0.142,-0.662 -0.571,-1.501 -0.954,-1.865c-0.384,-0.364 -0.697,-1.07 -0.697,-1.57c0,-0.506 -0.327,-1.111 -0.74,-1.369c-0.433,-0.27 -0.74,-0.863 -0.74,-1.426c0,-0.53 -0.313,-1.247 -0.696,-1.593c-0.382,-0.346 -0.797,-1.266 -0.922,-2.045c-0.124,-0.778 -0.459,-1.608 -0.743,-1.844c-0.285,-0.236 -0.699,-1.15 -0.921,-2.032c-0.222,-0.881 -0.657,-1.812 -0.966,-2.069c-0.31,-0.257 -0.564,-0.904 -0.565,-1.439c-0.002,-0.535 -0.333,-1.472 -0.738,-2.082c-0.404,-0.611 -0.736,-1.477 -0.737,-1.926c-0.003,-0.939 -0.736,-2.7 -1.125,-2.7c-0.144,0 -0.368,-0.797 -0.498,-1.771c-0.129,-0.974 -0.462,-2.098 -0.741,-2.497c-0.278,-0.4 -0.628,-1.476 -0.777,-2.392c-0.149,-0.916 -0.573,-2.415 -0.941,-3.331c-0.369,-0.915 -0.772,-2.39 -0.896,-3.276c-0.125,-0.886 -0.458,-2.059 -0.74,-2.606c-0.283,-0.546 -0.697,-2.304 -0.92,-3.906c-0.222,-1.602 -0.594,-3.141 -0.826,-3.42c-0.232,-0.279 -0.562,-2.175 -0.734,-4.212c-0.173,-2.037 -0.541,-4.154 -0.82,-4.705c-0.309,-0.611 -0.605,-3.02 -0.761,-6.182c-0.14,-2.849 -0.506,-6.595 -0.815,-8.325c-0.762,-4.277 -0.749,-16.525 0.023,-22.178c0.317,-2.328 0.577,-5.992 0.577,-8.142c0,-2.801 0.21,-4.644 0.74,-6.498c0.407,-1.423 0.74,-3.544 0.74,-4.713c0,-1.229 0.312,-2.945 0.74,-4.071c0.407,-1.071 0.748,-2.613 0.757,-3.427c0.009,-0.814 0.273,-2.146 0.586,-2.96c0.314,-0.814 0.78,-2.597 1.036,-3.963c0.256,-1.365 0.658,-2.714 0.893,-2.997c0.235,-0.284 0.537,-1.331 0.67,-2.328c0.133,-0.997 0.55,-2.393 0.926,-3.103c0.375,-0.709 0.683,-1.812 0.683,-2.452c0,-0.64 0.238,-1.361 0.53,-1.602c0.291,-0.242 0.709,-1.277 0.928,-2.301c0.22,-1.023 0.647,-2.215 0.951,-2.648c0.303,-0.433 0.553,-1.042 0.555,-1.353c0.001,-0.311 0.412,-1.397 0.913,-2.415c0.501,-1.018 0.915,-2.074 0.922,-2.348c0.006,-0.274 0.245,-0.94 0.531,-1.48c0.454,-0.857 1.188,-2.445 2.763,-5.978c0.227,-0.509 0.58,-1.175 0.785,-1.48c0.205,-0.305 0.539,-0.971 0.742,-1.48c0.203,-0.509 0.527,-1.175 0.721,-1.48c0.407,-0.644 1.159,-2.121 2.211,-4.348c0.408,-0.865 0.915,-1.573 1.126,-1.573c0.211,0 0.383,-0.274 0.383,-0.609c0,-0.335 0.591,-1.499 1.312,-2.586c0.722,-1.088 1.557,-2.562 1.856,-3.276c0.298,-0.715 0.676,-1.299 0.839,-1.299c0.163,0 0.579,-0.541 0.924,-1.203c0.666,-1.274 1.04,-1.861 3.393,-5.32c1.663,-2.445 5.776,-7.93 7.524,-10.034c0.635,-0.764 2.033,-2.474 3.106,-3.8c7.221,-8.915 22.446,-23.239 31.275,-29.422c0.864,-0.605 2.197,-1.561 2.961,-2.125c4.356,-3.212 10.77,-7.388 12.368,-8.052c0.543,-0.226 1.073,-0.633 1.177,-0.905c0.105,-0.272 0.7,-0.606 1.323,-0.743c0.623,-0.137 1.259,-0.444 1.413,-0.682c0.153,-0.239 1.445,-1.013 2.869,-1.72c1.425,-0.708 2.811,-1.499 3.08,-1.758c0.269,-0.259 0.784,-0.471 1.146,-0.471c0.361,0 1.041,-0.333 1.51,-0.74c0.469,-0.407 1.119,-0.744 1.444,-0.748c0.325,-0.005 1.007,-0.334 1.516,-0.732c0.509,-0.398 1.092,-0.733 1.295,-0.744c0.204,-0.011 1.365,-0.514 2.581,-1.118c1.216,-0.604 2.403,-1.099 2.637,-1.099c0.235,0 0.634,-0.249 0.888,-0.555c0.253,-0.305 0.734,-0.555 1.068,-0.555c0.334,0 1.188,-0.31 1.897,-0.69c0.71,-0.38 1.873,-0.818 2.585,-0.974c0.712,-0.155 1.692,-0.593 2.178,-0.974c0.485,-0.381 1.283,-0.692 1.772,-0.692c0.489,0 1.543,-0.333 2.341,-0.74c0.797,-0.407 1.755,-0.74 2.127,-0.74c0.372,0 1.285,-0.31 2.028,-0.689c0.744,-0.379 2.07,-0.804 2.946,-0.944c0.877,-0.14 1.957,-0.492 2.401,-0.782c0.443,-0.291 1.526,-0.629 2.405,-0.752c0.879,-0.124 2.379,-0.544 3.332,-0.934c0.954,-0.39 2.369,-0.715 3.145,-0.722c0.777,-0.007 2.078,-0.334 2.892,-0.727c0.814,-0.394 2.187,-0.721 3.051,-0.728c0.864,-0.007 2.53,-0.33 3.701,-0.718c1.171,-0.388 3.378,-0.8 4.904,-0.914c1.526,-0.114 3.608,-0.465 4.625,-0.779c1.018,-0.315 4.49,-0.737 7.716,-0.938c3.226,-0.201 6.031,-0.469 6.234,-0.594c1.383,-0.855 40.367,-1.019 43.96,-0.185" id="path2"/>
   <path fill-rule="evenodd" fill="#f9fbfa" d="m184.089,4.277c-1.221,0.284 -5.301,0.622 -9.066,0.751c-4.944,0.17 -7.154,0.39 -7.955,0.79c-0.644,0.321 -2.855,0.669 -5.263,0.829c-2.511,0.167 -4.385,0.469 -4.74,0.764c-0.324,0.268 -2.035,0.689 -3.803,0.936c-1.769,0.247 -3.882,0.711 -4.696,1.03c-0.814,0.32 -2.105,0.589 -2.869,0.598c-0.764,0.008 -2.01,0.349 -2.77,0.756c-0.759,0.407 -2.029,0.74 -2.822,0.74c-0.793,0 -1.961,0.312 -2.596,0.693c-0.635,0.381 -1.82,0.793 -2.634,0.916c-0.814,0.123 -2.14,0.56 -2.946,0.972c-0.806,0.412 -1.843,0.749 -2.304,0.749c-0.46,0 -1.383,0.333 -2.049,0.739c-0.666,0.406 -1.727,0.739 -2.357,0.74c-0.674,0.001 -1.421,0.306 -1.815,0.741c-0.368,0.407 -1.121,0.74 -1.672,0.74c-0.552,0 -1.4,0.312 -1.886,0.693c-0.485,0.381 -1.601,0.814 -2.48,0.962c-0.88,0.148 -1.687,0.498 -1.794,0.777c-0.107,0.28 -0.803,0.618 -1.547,0.753c-0.743,0.134 -1.649,0.555 -2.014,0.935c-0.364,0.38 -1.003,0.691 -1.421,0.691c-0.418,0 -1.183,0.333 -1.701,0.74c-0.517,0.407 -1.229,0.74 -1.581,0.74c-0.352,0 -1.064,0.333 -1.581,0.74c-0.517,0.407 -1.196,0.74 -1.508,0.74c-0.312,0 -0.659,0.147 -0.77,0.327c-0.111,0.18 -0.977,0.692 -1.925,1.137c-0.948,0.446 -1.961,1.048 -2.251,1.338c-0.291,0.291 -0.825,0.528 -1.188,0.528c-0.363,0 -1.109,0.416 -1.658,0.925c-0.549,0.509 -1.322,0.925 -1.719,0.925c-0.397,0 -0.721,0.17 -0.721,0.378c0,0.208 -0.458,0.582 -1.018,0.83c-0.559,0.249 -1.34,0.745 -1.734,1.102c-0.395,0.358 -0.964,0.651 -1.264,0.651c-0.301,0 -0.811,0.253 -1.133,0.564c-0.77,0.74 -3.314,2.396 -3.684,2.396c-0.159,0 -0.68,0.416 -1.158,0.925c-0.478,0.509 -1.006,0.925 -1.174,0.925c-0.168,0 -0.639,0.333 -1.046,0.74c-0.407,0.407 -0.99,0.74 -1.295,0.74c-0.306,0 -1.202,0.666 -1.992,1.48c-0.79,0.814 -1.55,1.48 -1.69,1.48c-0.139,0 -0.798,0.417 -1.465,0.925c-0.668,0.509 -1.317,0.925 -1.444,0.925c-0.126,0 -0.777,0.542 -1.445,1.204c-0.668,0.662 -2.38,2.163 -3.805,3.335c-1.424,1.173 -2.854,2.38 -3.176,2.682c-0.322,0.303 -0.708,0.55 -0.857,0.55c-0.45,0 -16.503,16.388 -16.503,16.847c0,0.301 -4.061,5.023 -5.439,6.323c-0.672,0.635 -1.222,1.36 -1.222,1.612c0,0.252 -0.423,0.982 -0.941,1.622c-0.517,0.639 -1.225,1.536 -1.572,1.992c-0.348,0.456 -1.007,1.255 -1.465,1.777c-0.458,0.521 -0.832,1.098 -0.832,1.282c0,0.51 -1.835,3.103 -2.433,3.438c-0.29,0.163 -0.527,0.595 -0.527,0.961c0,0.365 -0.333,0.965 -0.741,1.334c-0.407,0.368 -0.74,0.884 -0.74,1.146c0,0.262 -0.306,0.694 -0.68,0.96c-0.374,0.266 -0.79,0.93 -0.925,1.476c-0.135,0.545 -0.467,1.212 -0.737,1.483c-0.515,0.515 -1.306,1.875 -2.281,3.924c-0.319,0.67 -0.825,1.313 -1.124,1.427c-0.299,0.115 -0.543,0.607 -0.543,1.094c0,0.487 -0.338,1.224 -0.752,1.637c-0.413,0.414 -0.851,1.252 -0.974,1.864c-0.122,0.611 -0.533,1.278 -0.913,1.481c-0.437,0.234 -0.691,0.775 -0.691,1.471c0,0.642 -0.308,1.364 -0.74,1.734c-0.41,0.351 -0.74,1.092 -0.74,1.658c0,0.624 -0.29,1.206 -0.74,1.487c-0.463,0.289 -0.741,0.863 -0.741,1.532c0,0.589 -0.319,1.589 -0.709,2.224c-0.389,0.635 -0.827,1.792 -0.971,2.571c-0.145,0.779 -0.479,1.5 -0.744,1.602c-0.264,0.101 -0.596,0.865 -0.736,1.697c-0.141,0.832 -0.569,2.026 -0.951,2.654c-0.383,0.627 -0.697,1.645 -0.698,2.261c0,0.661 -0.304,1.38 -0.741,1.754c-0.541,0.463 -0.74,1.091 -0.74,2.336c0,1.143 -0.243,2.013 -0.74,2.644c-0.481,0.611 -0.74,1.501 -0.74,2.539c0,1.641 -0.618,3.482 -1.17,3.482c-0.17,0 -0.31,0.922 -0.31,2.048c0,1.125 -0.252,2.648 -0.559,3.384c-0.308,0.736 -0.716,2.604 -0.907,4.151c-0.192,1.547 -0.601,4.812 -0.91,7.254c-0.784,6.204 -0.809,34.187 -0.036,41.103c1.822,16.314 4.532,27.558 11.316,46.963c2.587,7.402 7.955,17.749 9.258,17.847c0.869,0.066 0.992,-0.467 1.192,-5.158c0.098,-2.317 0.348,-3.894 0.701,-4.441c0.302,-0.466 0.672,-1.347 0.822,-1.957c0.149,-0.611 0.487,-1.36 0.75,-1.665c0.263,-0.306 0.569,-1.608 0.679,-2.895c0.116,-1.36 0.445,-2.61 0.784,-2.985c0.32,-0.354 0.691,-1.216 0.823,-1.915c0.132,-0.699 0.454,-1.521 0.716,-1.826c0.261,-0.305 0.588,-1.006 0.725,-1.557c0.138,-0.552 0.487,-1.199 0.776,-1.439c0.289,-0.24 0.791,-0.996 1.116,-1.68c1.074,-2.264 2.233,-1.286 2.595,2.189c0.11,1.063 0.436,2.459 0.724,3.104c0.288,0.645 0.63,1.977 0.76,2.96c0.131,0.984 0.462,2.117 0.737,2.518c0.275,0.402 0.5,0.971 0.5,1.266c0,0.778 2.051,4.79 3.33,6.515c0.604,0.814 1.304,1.877 1.556,2.361c0.48,0.924 5.337,5.965 5.747,5.965c0.13,0 1.191,0.749 2.356,1.665c1.166,0.916 2.306,1.665 2.533,1.665c0.227,0 0.505,0.242 0.619,0.537c0.113,0.295 0.759,0.72 1.436,0.943c0.676,0.223 1.322,0.648 1.435,0.943c0.114,0.295 0.485,0.537 0.825,0.537c0.34,0 1.303,0.322 2.139,0.714c3.047,1.431 5.875,2.616 6.243,2.616c0.208,0 1.062,0.316 1.898,0.702c0.836,0.386 2.27,0.905 3.186,1.153c0.916,0.248 2.081,0.591 2.59,0.762c0.509,0.171 1.758,0.424 2.775,0.563c1.018,0.138 2.829,0.562 4.026,0.941c1.197,0.379 2.878,0.69 3.737,0.69c0.858,0 3.126,0.33 5.039,0.734c4.63,0.977 36.43,1.129 39.927,0.191c1.119,-0.3 4.259,-0.726 6.978,-0.945c2.718,-0.219 5.357,-0.556 5.863,-0.749c0.507,-0.193 3.028,-0.528 5.604,-0.745c2.575,-0.217 5.265,-0.631 5.977,-0.921c0.712,-0.289 2.402,-0.678 3.755,-0.863c1.353,-0.185 2.778,-0.506 3.167,-0.714c0.389,-0.209 2.113,-0.626 3.83,-0.928c1.718,-0.302 3.566,-0.72 4.107,-0.928c0.541,-0.208 2.039,-0.494 3.33,-0.635c1.291,-0.141 2.801,-0.486 3.356,-0.767c0.554,-0.281 2.053,-0.618 3.33,-0.749c1.277,-0.131 2.655,-0.449 3.062,-0.706c0.407,-0.258 1.573,-0.583 2.59,-0.722c1.018,-0.14 2.229,-0.492 2.691,-0.783c0.463,-0.291 1.78,-0.703 2.926,-0.915c1.147,-0.212 2.433,-0.609 2.859,-0.882c0.426,-0.273 1.607,-0.616 2.625,-0.762c1.018,-0.146 1.943,-0.407 2.056,-0.582c0.113,-0.174 1.195,-0.511 2.405,-0.749c1.21,-0.237 2.597,-0.738 3.082,-1.112c0.485,-0.374 1.356,-0.679 1.934,-0.679c0.578,0 1.596,-0.333 2.262,-0.739c0.667,-0.406 1.712,-0.745 2.322,-0.752c0.611,-0.007 1.943,-0.422 2.96,-0.923c1.018,-0.5 2.023,-0.911 2.235,-0.913c0.211,-0.002 1.037,-0.337 1.836,-0.744c0.798,-0.407 1.672,-0.74 1.943,-0.74c0.27,0 1.109,-0.31 1.864,-0.69c0.755,-0.379 1.981,-0.8 2.723,-0.935c0.743,-0.134 1.544,-0.477 1.779,-0.761c0.236,-0.284 1.076,-0.625 1.866,-0.759c0.791,-0.134 1.625,-0.469 1.855,-0.745c0.229,-0.277 0.946,-0.615 1.594,-0.753c0.647,-0.137 1.429,-0.471 1.738,-0.742c0.308,-0.272 1.307,-0.663 2.22,-0.871c0.912,-0.207 2.319,-0.716 3.125,-1.131c0.806,-0.414 1.68,-0.753 1.943,-0.753c0.262,0 0.476,-0.147 0.476,-0.326c0,-0.178 0.542,-0.533 1.203,-0.788c1.297,-0.5 3.14,-1.291 5.916,-2.539c0.965,-0.433 1.985,-0.788 2.268,-0.788c0.282,0 0.724,-0.253 0.981,-0.562c0.256,-0.31 1.181,-0.743 2.055,-0.963c0.873,-0.22 1.669,-0.612 1.768,-0.87c0.1,-0.258 0.639,-0.585 1.199,-0.725c0.56,-0.141 1.428,-0.579 1.93,-0.973c0.501,-0.394 1.2,-0.717 1.552,-0.717c0.352,0 1.063,-0.333 1.581,-0.74c0.517,-0.407 1.183,-0.74 1.48,-0.74c0.297,0 0.963,-0.333 1.48,-0.74c0.518,-0.407 1.193,-0.74 1.502,-0.74c0.308,0 1.055,-0.417 1.66,-0.925c0.605,-0.509 1.346,-0.925 1.648,-0.925c0.302,0 0.751,-0.244 0.998,-0.541c0.246,-0.298 0.808,-0.65 1.248,-0.784c0.439,-0.134 1.048,-0.452 1.354,-0.708c0.305,-0.255 1.179,-0.665 1.942,-0.91c0.764,-0.245 1.388,-0.588 1.388,-0.763c0,-0.174 0.583,-0.528 1.295,-0.785c0.712,-0.258 1.295,-0.583 1.295,-0.724c0,-0.141 0.625,-0.53 1.388,-0.866c2.122,-0.934 3.553,-1.811 4.067,-2.493c0.257,-0.34 0.966,-0.728 1.576,-0.862c0.61,-0.134 1.11,-0.394 1.11,-0.577c0,-0.183 0.688,-0.711 1.53,-1.173c2.326,-1.277 2.848,-1.599 3.555,-2.189c0.358,-0.299 1.108,-0.739 1.668,-0.977c0.559,-0.239 1.017,-0.588 1.017,-0.775c0,-0.188 0.5,-0.516 1.11,-0.729c0.611,-0.213 1.111,-0.551 1.111,-0.752c0,-0.2 0.374,-0.478 0.832,-0.618c0.458,-0.139 1.125,-0.51 1.483,-0.824c0.357,-0.314 0.967,-0.752 1.355,-0.974c0.387,-0.222 1.477,-0.944 2.421,-1.606c0.944,-0.661 1.883,-1.202 2.086,-1.202c0.203,0 0.934,-0.548 1.624,-1.218c0.69,-0.67 2.222,-1.873 3.404,-2.672c1.183,-0.8 3.345,-2.417 4.804,-3.593c1.46,-1.176 2.772,-2.138 2.917,-2.138c0.249,0 2.251,-1.781 4.04,-3.592c2.723,-2.758 5.081,-1.834 3.029,1.187c-0.735,1.081 -12.274,12.766 -12.607,12.766c-0.092,0 -1.144,0.957 -2.338,2.128c-3.263,3.197 -7.465,6.877 -8.464,7.412c-0.487,0.261 -0.889,0.594 -0.893,0.74c-0.004,0.146 -0.857,0.765 -1.895,1.376c-1.039,0.61 -2.231,1.485 -2.65,1.942c-0.419,0.458 -0.982,0.833 -1.25,0.833c-0.269,0 -0.489,0.14 -0.489,0.311c0,0.348 -3.864,3.425 -5.197,4.138c-0.474,0.254 -1.195,0.772 -1.602,1.151c-0.407,0.38 -0.933,0.69 -1.169,0.69c-0.235,0 -0.729,0.334 -1.097,0.741c-0.369,0.407 -0.852,0.74 -1.075,0.74c-0.223,0 -1.146,0.676 -2.051,1.504c-0.905,0.827 -2.112,1.597 -2.683,1.711c-0.57,0.114 -1.037,0.362 -1.037,0.55c0,0.188 -0.554,0.574 -1.232,0.857c-0.678,0.284 -1.447,0.775 -1.71,1.092c-0.263,0.317 -0.688,0.576 -0.943,0.576c-0.256,0 -0.68,0.259 -0.943,0.576c-0.263,0.318 -1.033,0.809 -1.71,1.092c-0.678,0.283 -1.232,0.676 -1.232,0.874c0,0.198 -0.5,0.469 -1.111,0.603c-0.61,0.134 -1.11,0.379 -1.11,0.545c0,0.165 -0.666,0.567 -1.48,0.892c-0.814,0.326 -1.48,0.74 -1.48,0.921c0,0.18 -0.541,0.542 -1.202,0.804c-0.662,0.261 -1.468,0.7 -1.792,0.974c-0.675,0.571 -4.34,2.542 -9.957,5.355c-2.137,1.07 -4.014,2.155 -4.173,2.411c-0.158,0.255 -0.854,0.571 -1.547,0.701c-0.692,0.13 -1.34,0.448 -1.44,0.707c-0.099,0.259 -0.639,0.586 -1.199,0.727c-0.56,0.14 -1.414,0.566 -1.897,0.947c-0.484,0.38 -1.371,0.799 -1.972,0.931c-0.601,0.132 -1.093,0.387 -1.093,0.567c0,0.179 -0.707,0.514 -1.572,0.745c-0.865,0.23 -1.823,0.64 -2.128,0.91c-0.305,0.271 -1.055,0.614 -1.665,0.762c-0.611,0.149 -1.507,0.578 -1.993,0.954c-0.485,0.376 -1.117,0.684 -1.404,0.684c-0.287,0 -1.304,0.416 -2.26,0.925c-0.956,0.509 -2.031,0.925 -2.388,0.925c-0.358,0 -0.984,0.333 -1.391,0.74c-0.407,0.407 -1.142,0.74 -1.634,0.74c-0.492,0 -0.955,0.181 -1.029,0.403c-0.074,0.222 -1.038,0.638 -2.143,0.924c-1.105,0.287 -2.149,0.772 -2.32,1.077c-0.171,0.306 -0.479,0.556 -0.683,0.556c-0.205,0 -1.112,0.338 -2.017,0.75c-0.905,0.412 -2.154,0.851 -2.775,0.975c-0.622,0.124 -1.74,0.537 -2.484,0.916c-0.744,0.379 -1.713,0.69 -2.154,0.69c-0.441,0 -1.005,0.245 -1.254,0.545c-0.249,0.3 -1.021,0.652 -1.715,0.782c-0.694,0.13 -1.878,0.551 -2.631,0.935c-0.753,0.384 -1.628,0.698 -1.944,0.698c-0.316,0 -1.191,0.33 -1.943,0.733c-0.753,0.404 -2.083,0.843 -2.955,0.976c-0.872,0.133 -1.779,0.393 -2.014,0.577c-0.234,0.185 -1.483,0.653 -2.775,1.039c-3.314,0.993 -5.895,1.89 -6.973,2.424c-0.509,0.252 -1.837,0.581 -2.951,0.731c-1.115,0.15 -2.374,0.501 -2.8,0.779c-0.425,0.279 -1.565,0.615 -2.534,0.748c-0.969,0.133 -2.367,0.55 -3.107,0.928c-0.74,0.377 -1.902,0.686 -2.583,0.686c-0.68,0 -1.935,0.316 -2.789,0.704c-0.854,0.387 -2.551,0.823 -3.773,0.969c-1.221,0.146 -2.491,0.503 -2.824,0.794c-0.332,0.291 -1.747,0.675 -3.145,0.854c-1.398,0.179 -3.452,0.587 -4.564,0.907c-1.113,0.32 -2.662,0.582 -3.442,0.582c-0.779,0 -1.913,0.256 -2.52,0.57c-0.606,0.313 -2.221,0.661 -3.589,0.773c-1.368,0.111 -3.486,0.513 -4.707,0.891c-1.222,0.379 -3.802,0.797 -5.736,0.929c-1.933,0.133 -4.253,0.482 -5.154,0.777c-0.968,0.317 -4.417,0.675 -8.415,0.873c-3.726,0.186 -7.098,0.51 -7.494,0.722c-1.202,0.643 -25.171,0.494 -28.335,-0.176c-1.425,-0.302 -4.139,-0.549 -6.032,-0.549c-2.405,0 -3.78,-0.175 -4.566,-0.581c-0.618,-0.32 -2.733,-0.76 -4.699,-0.978c-1.989,-0.22 -4.184,-0.701 -4.948,-1.083c-0.755,-0.379 -1.94,-0.688 -2.633,-0.688c-0.699,0 -1.678,-0.329 -2.2,-0.74c-0.518,-0.407 -1.265,-0.74 -1.66,-0.74c-0.999,0 -3.05,-0.749 -3.05,-1.114c0,-0.166 -0.7,-0.42 -1.556,-0.564c-0.856,-0.145 -1.98,-0.541 -2.498,-0.88c-1.734,-1.137 -2.414,-1.524 -3.716,-2.117c-0.713,-0.324 -1.379,-0.718 -1.48,-0.876c-0.102,-0.157 -0.81,-0.546 -1.573,-0.864c-0.763,-0.318 -1.388,-0.753 -1.388,-0.967c0,-0.705 -1.445,-0.404 -1.87,0.389c-0.35,0.654 -0.263,0.937 0.542,1.778c0.527,0.55 0.958,1.34 0.958,1.755c0,0.415 0.333,1.056 0.74,1.425c0.407,0.368 0.74,0.883 0.74,1.143c0,0.478 2.966,4.356 5.962,7.797c0.893,1.026 2.204,2.598 2.912,3.493c4.707,5.947 17.522,17.88 25.68,23.91c12.198,9.017 19.018,13.23 31.126,19.229c17.201,8.522 35.108,14.069 55.926,17.324c11.281,1.763 40.046,1.765 51.012,0.003c16.411,-2.638 28.335,-5.768 41.998,-11.025c8.996,-3.461 23.552,-10.862 31.228,-15.876c1.81,-1.183 3.364,-2.15 3.453,-2.15c0.217,0 11.851,-8.497 14.903,-10.884c9.337,-7.303 24.454,-23.029 30.444,-31.669c0.352,-0.509 1.228,-1.758 1.946,-2.775c0.717,-1.018 1.508,-2.165 1.756,-2.55c0.249,-0.384 0.793,-1.133 1.211,-1.665c1.172,-1.491 5.294,-7.934 7.011,-10.959c3.311,-5.832 4.277,-7.668 7.404,-14.07c1.892,-3.873 4.295,-9.284 5.339,-12.026c1.044,-2.741 2.06,-5.368 2.258,-5.838c1.323,-3.142 4.742,-14.892 6.536,-22.458c0.706,-2.978 2.417,-12.895 3.289,-19.056c0.986,-6.975 1.018,-37.096 0.045,-43.478c-2.101,-13.79 -2.654,-16.862 -3.99,-22.162c-0.814,-3.235 -1.821,-7.065 -2.238,-8.511c-0.416,-1.446 -0.968,-3.386 -1.228,-4.311c-0.259,-0.924 -1.103,-3.339 -1.876,-5.365c-2.345,-6.146 -3.188,-8.404 -3.92,-10.49c-0.385,-1.098 -0.845,-2.18 -1.023,-2.406c-0.178,-0.225 -0.524,-1.033 -0.769,-1.794c-0.625,-1.941 -7.156,-14.78 -8.273,-16.263c-0.506,-0.673 -1.614,-2.533 -2.461,-4.133c-2.727,-5.15 -5.756,-9.707 -12.454,-18.74c-1.435,-1.935 -2.845,-3.767 -3.134,-4.071c-0.289,-0.303 -1.968,-2.217 -3.73,-4.252c-8.353,-9.647 -16.957,-17.295 -18.61,-16.542c-0.471,0.215 -1.043,0.234 -1.38,0.046c-1.008,-0.565 -1.043,1.547 -1.043,64.056l0,60.963l-1.202,1.487c-0.662,0.817 -1.886,1.926 -2.721,2.464c-0.835,0.538 -2.202,1.635 -3.038,2.439c-0.837,0.803 -1.688,1.461 -1.892,1.461c-0.204,0 -0.55,0.333 -0.767,0.74c-0.218,0.407 -0.552,0.74 -0.741,0.74c-0.19,0 -0.899,0.541 -1.577,1.202c-1.406,1.374 -4.198,3.608 -4.506,3.608c-0.114,0 -0.524,0.292 -0.912,0.648c-0.388,0.356 -1.733,1.397 -2.987,2.312c-1.255,0.916 -2.693,2.039 -3.195,2.496c-1.224,1.113 -5.104,3.675 -5.993,3.958c-0.393,0.124 -1.011,0.555 -1.375,0.956c-0.363,0.402 -0.95,0.731 -1.304,0.731c-0.354,0 -0.737,0.245 -0.852,0.543c-0.114,0.299 -0.756,0.798 -1.427,1.11c-0.67,0.311 -1.651,0.857 -2.181,1.214c-2.31,1.556 -3.146,2.157 -3.73,2.681c-0.343,0.306 -1.175,0.822 -1.85,1.146c-6.135,2.943 -6.13,2.942 -7.086,1.886c-0.559,-0.618 -0.609,-7.185 -0.632,-82.579l-0.024,-81.909l0.769,-0.769c0.754,-0.755 1.149,-0.774 20.463,-0.975c10.832,-0.114 19.721,-0.239 19.752,-0.278c0.356,-0.441 -0.58,-1.606 -1.544,-1.924c-0.673,-0.222 -1.316,-0.645 -1.429,-0.941c-0.114,-0.295 -0.512,-0.537 -0.886,-0.537c-0.374,0 -1.244,-0.416 -1.934,-0.925c-0.689,-0.509 -1.556,-0.925 -1.925,-0.925c-0.37,0 -0.957,-0.333 -1.306,-0.74c-0.348,-0.407 -1.014,-0.74 -1.48,-0.74c-0.466,0 -1.132,-0.333 -1.48,-0.74c-0.349,-0.407 -1.09,-0.74 -1.647,-0.74c-0.558,0 -1.312,-0.311 -1.676,-0.691c-0.364,-0.38 -1.319,-0.81 -2.122,-0.956c-0.803,-0.145 -1.866,-0.584 -2.363,-0.974c-0.496,-0.39 -1.353,-0.71 -1.905,-0.71c-0.551,0 -1.304,-0.333 -1.672,-0.74c-0.405,-0.447 -1.14,-0.74 -1.858,-0.74c-0.653,0 -1.611,-0.333 -2.128,-0.74c-0.518,-0.407 -1.348,-0.74 -1.845,-0.74c-1.136,0 -3.235,-0.716 -3.235,-1.104c0,-0.16 -0.902,-0.403 -2.005,-0.541c-1.146,-0.143 -2.359,-0.558 -2.832,-0.968c-0.547,-0.475 -1.375,-0.717 -2.45,-0.717c-0.893,0 -2.241,-0.31 -2.996,-0.689c-0.755,-0.378 -2.343,-0.784 -3.529,-0.901c-1.186,-0.117 -2.528,-0.456 -2.981,-0.753c-0.454,-0.298 -2.148,-0.664 -3.764,-0.815c-1.669,-0.155 -3.497,-0.572 -4.229,-0.963c-0.962,-0.514 -2.074,-0.69 -4.372,-0.69c-2.191,0 -3.583,-0.205 -4.816,-0.71c-1.396,-0.573 -2.992,-0.749 -8.209,-0.908c-3.663,-0.111 -7.601,-0.442 -9.066,-0.763c-3.584,-0.783 -30.296,-0.785 -33.672,-0.002m68.124,59.49l0.901,1.046l-0.025,67.802c-0.027,75.466 0.17,69.555 -2.359,70.517c-0.489,0.186 -0.987,0.496 -1.107,0.689c-0.119,0.194 -0.664,0.464 -1.209,0.601c-0.546,0.137 -1.402,0.572 -1.904,0.966c-0.501,0.395 -1.202,0.717 -1.556,0.717c-0.355,0 -0.851,0.249 -1.104,0.553c-0.252,0.304 -1.146,0.735 -1.987,0.959c-0.842,0.224 -1.791,0.64 -2.109,0.924c-0.319,0.284 -1.099,0.62 -1.734,0.747c-0.635,0.127 -1.235,0.44 -1.334,0.697c-0.098,0.256 -0.644,0.583 -1.214,0.725c-0.569,0.143 -2.373,0.888 -4.008,1.654c-1.634,0.767 -3.458,1.514 -4.053,1.661c-0.594,0.147 -1.491,0.59 -1.992,0.984c-0.502,0.394 -1.238,0.717 -1.636,0.717c-0.399,0 -1.148,0.333 -1.665,0.74c-0.518,0.407 -1.248,0.74 -1.622,0.74c-0.375,0 -1.227,0.333 -1.893,0.739c-0.667,0.406 -1.711,0.744 -2.322,0.752c-0.61,0.007 -1.942,0.422 -2.96,0.923c-1.018,0.5 -2.059,0.911 -2.314,0.913c-0.255,0.002 -1.085,0.337 -1.845,0.744c-1.625,0.871 -4.96,1.013 -5.602,0.238c-0.544,-0.654 -0.605,-156.21 -0.063,-157.637c0.467,-1.227 0.707,-1.238 27.155,-1.193l20.661,0.035l0.9,1.047m73.411,27.26c0,0.203 -0.24,0.37 -0.533,0.37c-0.293,0 -0.636,-0.167 -0.762,-0.37c-0.125,-0.204 0.114,-0.37 0.534,-0.37c0.419,0 0.761,0.166 0.761,0.37m8.759,2.278c1.593,0.613 3.647,1.351 4.562,1.64c1.591,0.502 2.923,1.074 5.366,2.303c0.61,0.308 2.32,1.365 3.8,2.349c1.479,0.985 2.832,1.791 3.006,1.791c1.104,0 8.2,8.473 9.916,11.84c5.239,10.281 3.284,24.853 -5.287,39.408c-0.48,0.815 -1.037,1.852 -1.239,2.306c-0.202,0.454 -1.182,1.869 -2.178,3.145c-0.996,1.276 -2.044,2.773 -2.33,3.328c-1.49,2.897 -14.978,17.617 -20.32,22.178c-7.613,6.498 -11.329,9.568 -13.144,10.857c-1.147,0.814 -3.757,2.853 -5.801,4.532c-2.043,1.679 -3.921,3.053 -4.173,3.053c-0.251,0 -0.684,0.273 -0.96,0.606c-0.527,0.634 -1.849,1.562 -5.731,4.019c-1.286,0.815 -3.969,2.579 -5.961,3.922c-1.992,1.343 -4.788,3.079 -6.212,3.858c-1.425,0.779 -3.257,1.869 -4.071,2.423c-2.236,1.521 -7.31,4.382 -11.656,6.572c-2.137,1.077 -4.551,2.356 -5.365,2.843c-0.814,0.486 -1.73,0.984 -2.035,1.106c-1.467,0.587 -3.97,1.879 -4.702,2.428c-0.45,0.337 -2.781,1.496 -5.181,2.576c-2.4,1.081 -6.239,2.852 -8.531,3.937c-2.293,1.085 -4.253,1.973 -4.356,1.973c-0.385,0 -6.701,2.576 -8.113,3.309c-0.806,0.419 -1.731,0.761 -2.054,0.761c-0.323,0 -0.747,0.16 -0.942,0.354c-0.195,0.195 -2.964,1.269 -6.155,2.387c-3.19,1.118 -6.103,2.204 -6.473,2.412c-0.672,0.38 -15.229,5.385 -17.323,5.957c-1.85,0.505 -7.211,2.057 -10.546,3.052c-4.045,1.208 -10.813,2.859 -11.716,2.859c-0.385,0 -1.033,0.234 -1.44,0.519c-0.747,0.523 -3.291,1.106 -10.711,2.454c-2.238,0.406 -4.569,0.897 -5.18,1.091c-0.61,0.194 -2.555,0.527 -4.321,0.742c-1.767,0.214 -3.911,0.636 -4.765,0.937c-0.854,0.301 -2.406,0.548 -3.449,0.548c-1.043,0.001 -3.311,0.257 -5.041,0.57c-16.479,2.98 -51.292,2.14 -60.685,-1.465c-0.712,-0.274 -2.211,-0.619 -3.33,-0.767c-1.119,-0.148 -2.734,-0.584 -3.588,-0.969c-0.853,-0.385 -1.737,-0.699 -1.962,-0.699c-1.121,0 -9.801,-4.298 -11.915,-5.899c-0.956,-0.724 -2.43,-1.816 -3.276,-2.427c-3.477,-2.509 -7.641,-7.619 -9.196,-11.286c-0.475,-1.119 -1.102,-2.491 -1.393,-3.049c-2.635,-5.042 -1.841,-17.904 1.562,-25.314c0.295,-0.641 0.536,-1.374 0.536,-1.629c0,-1.742 9.25,-17.411 11.445,-19.387c0.44,-0.396 1.451,-1.674 2.246,-2.838c1.581,-2.317 4.356,-5.113 5.088,-5.128c0.65,-0.013 0.69,-0.127 -1.697,4.889c-1.188,2.496 -2.608,6.036 -3.155,7.868c-0.547,1.831 -1.263,4.079 -1.59,4.995c-3.986,11.147 3.977,27.989 15.785,33.385c1.323,0.604 3.483,1.608 4.8,2.231c1.316,0.623 3.523,1.44 4.902,1.815c1.38,0.375 3.633,1.008 5.006,1.407c1.374,0.399 3.331,0.96 4.348,1.248c8.933,2.529 40.43,2.443 54.209,-0.147c1.12,-0.211 3.95,-0.697 6.291,-1.081c4.193,-0.688 7.86,-1.391 12.581,-2.413c1.323,-0.286 3.154,-0.627 4.07,-0.757c0.916,-0.13 1.998,-0.442 2.405,-0.693c0.407,-0.251 1.823,-0.662 3.146,-0.913c2.92,-0.554 7.918,-1.78 9.435,-2.316c1.085,-0.383 10.569,-3.238 13.876,-4.178c0.916,-0.26 2.914,-0.925 4.441,-1.477c1.526,-0.553 3.691,-1.257 4.81,-1.566c1.119,-0.309 2.202,-0.693 2.405,-0.854c0.204,-0.162 0.9,-0.407 1.547,-0.545c0.648,-0.138 1.372,-0.486 1.61,-0.773c0.238,-0.287 1.04,-0.631 1.783,-0.764c0.743,-0.134 1.767,-0.468 2.276,-0.743c0.508,-0.276 1.799,-0.837 2.867,-1.248c3.898,-1.498 5.919,-2.331 10.454,-4.31c2.544,-1.111 4.958,-2.163 5.365,-2.339c1.755,-0.757 9.066,-4.258 11.101,-5.315c1.221,-0.634 3.386,-1.721 4.81,-2.415c1.425,-0.695 2.84,-1.468 3.146,-1.718c0.305,-0.251 1.072,-0.629 1.705,-0.841c0.633,-0.212 1.882,-0.859 2.776,-1.438c0.893,-0.579 2.373,-1.449 3.289,-1.933c4.002,-2.115 5.143,-2.762 7.586,-4.302c1.424,-0.899 3.173,-1.957 3.885,-2.352c0.712,-0.395 2.294,-1.446 3.515,-2.337c1.221,-0.892 3.813,-2.646 5.76,-3.9c3.341,-2.151 9.198,-6.388 13.608,-9.845c1.088,-0.852 2.377,-1.813 2.865,-2.134c0.487,-0.322 1.429,-1.073 2.093,-1.669c6.592,-5.922 8.819,-8.005 12.492,-11.685c6.463,-6.474 9.965,-10.439 12.396,-14.036c3.329,-4.925 6.098,-9.387 6.98,-11.249c0.579,-1.221 1.35,-2.803 1.713,-3.515c0.364,-0.712 1.032,-2.544 1.485,-4.07c0.453,-1.527 1.073,-3.441 1.379,-4.255c1.643,-4.375 0.64,-16.729 -1.578,-19.427c-0.251,-0.305 -0.573,-0.94 -0.717,-1.41c-0.473,-1.552 -1.83,-3.435 -4.174,-5.795c-1.272,-1.281 -2.313,-2.487 -2.313,-2.68c0,-0.405 -3.748,-3.066 -4.317,-3.066c-0.208,0 -0.663,-0.314 -1.01,-0.697c-0.347,-0.384 -1.122,-0.796 -1.722,-0.916c-0.677,-0.136 -1.091,-0.449 -1.091,-0.826c0,-0.912 4.029,-0.376 7.648,1.017m-140.042,4.423c0.634,0.34 0.664,3.199 0.664,64.151l0,63.796l-0.823,0.576c-0.452,0.317 -1.21,0.576 -1.683,0.576c-0.474,0 -1.311,0.228 -1.861,0.507c-0.549,0.279 -2.058,0.69 -3.352,0.914c-1.295,0.224 -2.547,0.567 -2.783,0.762c-0.235,0.196 -1.59,0.551 -3.011,0.79c-1.421,0.24 -2.979,0.685 -3.463,0.991c-0.484,0.305 -1.899,0.637 -3.145,0.736c-1.247,0.1 -3.146,0.498 -4.223,0.886c-1.076,0.387 -2.622,0.704 -3.435,0.704c-0.814,0 -1.9,0.276 -2.413,0.612c-0.579,0.379 -2.228,0.723 -4.335,0.902c-1.871,0.16 -4.349,0.539 -5.507,0.843c-5.877,1.541 -9.565,0.733 -9.531,-2.088c0.01,-0.86 -0.031,-31.618 -0.093,-68.35l-0.111,-66.786l1.182,-0.559c1.394,-0.659 46.689,-0.623 47.923,0.037m-57.088,29.426l0.767,0.975l0,54.102l0,54.102l-0.771,0.698c-1.69,1.53 -32.408,1.516 -36.076,-0.017c-0.659,-0.275 -2.337,-0.619 -3.729,-0.765c-1.393,-0.146 -3.15,-0.577 -3.905,-0.958c-0.755,-0.382 -1.783,-0.693 -2.284,-0.693c-0.501,0 -1.424,-0.431 -2.05,-0.958l-1.138,-0.958l0,-52.575c0,-48.402 0.048,-52.628 0.612,-53.251c0.581,-0.642 1.819,-0.677 24.21,-0.677l23.598,0l0.766,0.975" id="path3"/>
   <path fill-rule="evenodd" fill="#97b9ba" d="m182.368,3.32c-1.965,0.16 -3.738,0.394 -3.941,0.52c-0.203,0.125 -3.008,0.393 -6.234,0.594c-3.226,0.201 -6.698,0.623 -7.716,0.938c-1.017,0.314 -3.099,0.665 -4.625,0.779c-1.526,0.114 -3.733,0.526 -4.904,0.914c-1.171,0.388 -2.837,0.711 -3.701,0.718c-0.864,0.007 -2.237,0.334 -3.051,0.728c-0.814,0.393 -2.115,0.72 -2.892,0.727c-0.776,0.007 -2.191,0.332 -3.145,0.722c-0.953,0.39 -2.453,0.81 -3.332,0.934c-0.879,0.123 -1.962,0.461 -2.405,0.752c-0.444,0.29 -1.524,0.642 -2.401,0.782c-0.876,0.14 -2.202,0.565 -2.946,0.944c-0.743,0.379 -1.656,0.689 -2.028,0.689c-0.372,0 -1.33,0.333 -2.127,0.74c-0.798,0.407 -1.852,0.74 -2.341,0.74c-0.489,0 -1.287,0.311 -1.772,0.692c-0.486,0.381 -1.466,0.819 -2.178,0.974c-0.712,0.156 -1.875,0.594 -2.585,0.974c-0.709,0.38 -1.563,0.69 -1.897,0.69c-0.334,0 -0.815,0.25 -1.068,0.555c-0.254,0.306 -0.653,0.555 -0.888,0.555c-0.234,0 -1.421,0.495 -2.637,1.099c-1.216,0.604 -2.377,1.107 -2.581,1.118c-0.203,0.011 -0.786,0.346 -1.295,0.744c-0.509,0.398 -1.191,0.727 -1.516,0.732c-0.325,0.004 -0.975,0.341 -1.444,0.748c-0.469,0.407 -1.149,0.74 -1.51,0.74c-0.362,0 -0.877,0.212 -1.146,0.471c-0.269,0.259 -1.655,1.05 -3.08,1.758c-1.424,0.707 -2.716,1.481 -2.869,1.72c-0.154,0.238 -0.79,0.545 -1.413,0.682c-0.623,0.137 -1.218,0.471 -1.323,0.743c-0.104,0.272 -0.634,0.679 -1.177,0.905c-1.598,0.664 -8.012,4.84 -12.368,8.052c-0.764,0.564 -2.097,1.52 -2.961,2.125c-5.707,3.998 -12.742,10.132 -20.599,17.964c-6.514,6.493 -7.589,7.648 -10.676,11.458c-1.073,1.326 -2.471,3.036 -3.106,3.8c-1.748,2.104 -5.861,7.589 -7.524,10.034c-2.353,3.459 -2.727,4.046 -3.393,5.32c-0.345,0.662 -0.761,1.203 -0.924,1.203c-0.163,0 -0.541,0.584 -0.839,1.299c-0.299,0.714 -1.134,2.188 -1.856,3.276c-0.721,1.087 -1.312,2.251 -1.312,2.586c0,0.335 -0.172,0.609 -0.383,0.609c-0.211,0 -0.718,0.708 -1.126,1.573c-1.052,2.227 -1.804,3.704 -2.211,4.348c-0.194,0.305 -0.518,0.971 -0.721,1.48c-0.203,0.509 -0.537,1.175 -0.742,1.48c-0.205,0.305 -0.558,0.971 -0.785,1.48c-1.575,3.533 -2.309,5.121 -2.763,5.978c-0.286,0.54 -0.525,1.206 -0.531,1.48c-0.007,0.274 -0.421,1.33 -0.922,2.348c-0.501,1.018 -0.912,2.104 -0.913,2.415c-0.002,0.311 -0.252,0.92 -0.555,1.353c-0.304,0.433 -0.731,1.625 -0.951,2.648c-0.219,1.024 -0.637,2.059 -0.928,2.301c-0.292,0.241 -0.53,0.962 -0.53,1.602c0,0.64 -0.308,1.743 -0.683,2.452c-0.376,0.71 -0.793,2.106 -0.926,3.103c-0.133,0.997 -0.435,2.044 -0.67,2.328c-0.235,0.283 -0.637,1.632 -0.893,2.997c-0.256,1.366 -0.722,3.149 -1.036,3.963c-0.313,0.814 -0.577,2.146 -0.586,2.96c-0.009,0.814 -0.35,2.356 -0.757,3.427c-0.428,1.126 -0.74,2.842 -0.74,4.071c0,1.169 -0.333,3.29 -0.74,4.713c-0.53,1.854 -0.74,3.697 -0.74,6.498c0,2.15 -0.26,5.814 -0.577,8.142c-0.772,5.653 -0.785,17.901 -0.023,22.178c0.309,1.73 0.675,5.476 0.815,8.325c0.156,3.162 0.452,5.571 0.761,6.182c0.279,0.551 0.647,2.668 0.82,4.705c0.172,2.037 0.502,3.933 0.734,4.212c0.232,0.279 0.604,1.818 0.826,3.42c0.223,1.602 0.637,3.36 0.92,3.906c0.282,0.547 0.615,1.72 0.74,2.606c0.124,0.886 0.527,2.361 0.896,3.276c0.368,0.916 0.792,2.415 0.941,3.331c0.149,0.916 0.499,1.992 0.777,2.392c0.279,0.399 0.612,1.523 0.741,2.497c0.13,0.974 0.354,1.771 0.498,1.771c0.389,0 1.122,1.761 1.125,2.7c0.001,0.449 0.333,1.315 0.737,1.926c0.405,0.61 0.736,1.547 0.738,2.082c0.001,0.535 0.255,1.182 0.565,1.439c0.309,0.257 0.744,1.188 0.966,2.069c0.222,0.882 0.636,1.796 0.921,2.032c0.284,0.236 0.619,1.066 0.743,1.844c0.125,0.779 0.54,1.699 0.922,2.045c0.383,0.346 0.696,1.063 0.696,1.593c0,0.563 0.307,1.156 0.74,1.426c0.413,0.258 0.74,0.863 0.74,1.369c0,0.5 0.313,1.206 0.697,1.57c0.383,0.364 0.812,1.203 0.954,1.865c0.142,0.661 0.419,1.202 0.617,1.202c0.198,0 0.589,0.541 0.87,1.203c0.576,1.358 3.371,6.279 4.355,7.668c0.356,0.503 0.647,1.17 0.647,1.483c0,0.313 0.333,0.777 0.74,1.031c0.407,0.254 0.74,0.685 0.74,0.957c0,0.272 0.333,0.796 0.74,1.164c0.408,0.368 0.741,0.976 0.741,1.349c0,0.374 0.333,0.888 0.74,1.142c0.407,0.254 0.74,0.606 0.74,0.782c0,0.177 0.416,0.815 0.925,1.42c0.508,0.605 0.925,1.299 0.925,1.544c0,0.244 0.291,0.72 0.647,1.058c0.356,0.338 0.932,0.999 1.28,1.47c0.347,0.471 1.055,1.379 1.572,2.019c0.518,0.64 0.941,1.328 0.941,1.528c0,0.201 0.625,1.013 1.388,1.805c1.511,1.569 4.649,5.307 5.828,6.943c2.627,3.647 13.403,14.226 20,19.634c2.228,1.827 4.107,3.451 4.175,3.609c0.068,0.158 1.067,0.902 2.22,1.653c1.153,0.751 2.347,1.58 2.652,1.842c0.305,0.262 1.037,0.896 1.626,1.409c0.59,0.512 1.245,0.932 1.457,0.932c0.211,0 1.174,0.666 2.14,1.48c0.965,0.814 1.862,1.48 1.992,1.48c0.224,0 3.271,2.012 4.071,2.687c0.203,0.172 0.9,0.595 1.549,0.941c2.819,1.5 6.001,3.469 6.416,3.97c0.248,0.298 0.741,0.543 1.096,0.543c0.354,0 1.055,0.322 1.556,0.717c0.502,0.394 1.358,0.829 1.904,0.966c0.545,0.137 1.064,0.367 1.153,0.511c0.089,0.144 1.961,1.142 4.16,2.219c2.198,1.076 4.33,2.131 4.737,2.345c0.407,0.213 0.99,0.5 1.295,0.637c0.306,0.137 1.255,0.61 2.109,1.052c0.854,0.442 1.77,0.805 2.035,0.807c0.265,0.002 1.314,0.413 2.332,0.913c1.018,0.501 2.119,0.916 2.448,0.922c0.328,0.006 1.021,0.345 1.538,0.752c0.518,0.407 1.337,0.74 1.822,0.74c0.485,0 1.531,0.331 2.326,0.736c0.795,0.406 2.037,0.846 2.761,0.98c0.724,0.133 1.896,0.551 2.605,0.928c0.71,0.377 1.792,0.687 2.406,0.688c0.613,0.002 1.615,0.334 2.225,0.738c0.611,0.404 1.662,0.736 2.337,0.738c0.674,0.001 2.007,0.322 2.96,0.713c0.954,0.39 2.637,0.816 3.74,0.946c1.104,0.13 2.353,0.426 2.776,0.659c0.422,0.233 2.1,0.625 3.728,0.871c1.629,0.246 3.627,0.704 4.441,1.019c0.814,0.315 2.563,0.579 3.886,0.588c1.324,0.009 3.571,0.349 4.994,0.756c5.33,1.525 59.329,0.927 66.235,-0.733c5.062,-1.216 9.128,-2.243 10.361,-2.617c9.896,-3 13.099,-4.072 18.951,-6.347c7.875,-3.061 23.813,-11.047 30.712,-15.39c33.332,-20.979 57.431,-48.759 73.966,-85.262c2.193,-4.842 2.206,-4.873 4.57,-11.39c6.19,-17.061 9.842,-33.484 11.163,-50.201c0.58,-7.34 0.207,-34.099 -0.556,-39.9c-1.668,-12.684 -3.219,-20.032 -6.949,-32.933c-6.608,-22.85 -21.994,-51.53 -35.689,-66.527c-0.225,-0.246 -1.55,-1.447 -2.944,-2.668c-2.559,-2.242 -5.933,-5.3 -7.347,-6.66c-0.422,-0.406 -1.59,-1.304 -2.595,-1.995c-1.005,-0.691 -2.366,-1.747 -3.024,-2.346c-0.659,-0.6 -2.009,-1.616 -3.002,-2.26c-0.992,-0.644 -2.046,-1.381 -2.342,-1.638c-0.789,-0.686 -3.308,-2.307 -3.584,-2.307c-0.13,0 -0.602,-0.344 -1.049,-0.763c-0.447,-0.42 -1.577,-0.993 -2.512,-1.275l-1.699,-0.511l-0.015,64.206c-0.015,71.026 0.2,65.177 -2.484,67.458c-0.773,0.657 -1.906,1.652 -2.516,2.211c-4.848,4.439 -14.319,11.794 -21.641,16.806c-7.175,4.911 -18.381,11.72 -19.288,11.72c-1.446,0 -1.423,1.33 -1.435,-81.497l-0.012,-80.515l0.979,-0.771c0.966,-0.76 1.256,-0.77 22.724,-0.77l21.745,0l-1.087,-1.163c-1.133,-1.213 -1.466,-1.419 -6.154,-3.813c-1.574,-0.803 -3.082,-1.678 -3.351,-1.942c-0.269,-0.265 -0.768,-0.486 -1.11,-0.49c-0.341,-0.005 -1.037,-0.334 -1.546,-0.732c-0.509,-0.398 -1.092,-0.733 -1.295,-0.744c-0.204,-0.011 -1.365,-0.514 -2.581,-1.118c-1.216,-0.604 -2.403,-1.099 -2.637,-1.099c-0.235,0 -0.634,-0.249 -0.888,-0.555c-0.253,-0.305 -0.734,-0.555 -1.068,-0.555c-0.334,0 -1.229,-0.333 -1.988,-0.74c-0.76,-0.407 -1.607,-0.74 -1.882,-0.74c-0.276,0 -1.285,-0.416 -2.242,-0.925c-0.956,-0.509 -2.105,-0.926 -2.552,-0.927c-0.447,-0.002 -1.313,-0.334 -1.923,-0.738c-0.611,-0.404 -1.529,-0.736 -2.041,-0.738c-0.512,-0.001 -1.512,-0.313 -2.222,-0.694c-0.71,-0.381 -1.989,-0.81 -2.841,-0.954c-0.852,-0.144 -2.177,-0.582 -2.944,-0.973c-0.767,-0.391 -1.989,-0.711 -2.714,-0.711c-0.726,0 -1.694,-0.262 -2.152,-0.583c-0.457,-0.32 -1.785,-0.677 -2.95,-0.792c-1.165,-0.115 -2.736,-0.518 -3.491,-0.897c-0.755,-0.379 -2.128,-0.688 -3.051,-0.688c-0.923,0 -2.637,-0.319 -3.808,-0.708c-1.171,-0.389 -3.417,-0.812 -4.993,-0.94c-1.575,-0.128 -3.552,-0.476 -4.394,-0.773c-0.842,-0.297 -4.132,-0.713 -7.312,-0.924c-3.18,-0.212 -6.531,-0.559 -7.446,-0.771c-2.044,-0.475 -34.945,-0.75 -40.019,-0.335m35.393,0.959c1.465,0.321 5.403,0.652 9.066,0.763c5.217,0.159 6.813,0.335 8.209,0.908c1.233,0.505 2.625,0.71 4.816,0.71c2.298,0 3.41,0.176 4.372,0.69c0.732,0.391 2.56,0.808 4.229,0.963c1.616,0.151 3.31,0.517 3.764,0.815c0.453,0.297 1.795,0.636 2.981,0.753c1.186,0.117 2.774,0.523 3.529,0.901c0.755,0.379 2.103,0.689 2.996,0.689c1.075,0 1.903,0.242 2.45,0.717c0.473,0.41 1.686,0.825 2.832,0.968c1.103,0.138 2.005,0.381 2.005,0.541c0,0.388 2.099,1.104 3.235,1.104c0.497,0 1.327,0.333 1.845,0.74c0.517,0.407 1.475,0.74 2.128,0.74c0.718,0 1.453,0.293 1.858,0.74c0.368,0.407 1.121,0.74 1.672,0.74c0.552,0 1.409,0.32 1.905,0.71c0.497,0.39 1.56,0.829 2.363,0.974c0.803,0.146 1.758,0.576 2.122,0.956c0.364,0.38 1.118,0.691 1.676,0.691c0.557,0 1.298,0.333 1.647,0.74c0.348,0.407 1.014,0.74 1.48,0.74c0.466,0 1.132,0.333 1.48,0.74c0.349,0.407 0.936,0.74 1.306,0.74c0.369,0 1.236,0.416 1.925,0.925c0.69,0.509 1.56,0.925 1.934,0.925c0.374,0 0.772,0.242 0.886,0.537c0.113,0.296 0.756,0.719 1.429,0.941c0.964,0.318 1.9,1.483 1.544,1.924c-0.031,0.039 -8.92,0.164 -19.752,0.278c-19.314,0.201 -19.709,0.22 -20.463,0.975l-0.769,0.769l0.024,81.909c0.023,75.394 0.073,81.961 0.632,82.579c0.956,1.056 0.951,1.057 7.086,-1.886c0.675,-0.324 1.507,-0.84 1.85,-1.146c0.584,-0.524 1.42,-1.125 3.73,-2.681c0.53,-0.357 1.511,-0.903 2.181,-1.214c0.671,-0.312 1.313,-0.811 1.427,-1.11c0.115,-0.298 0.498,-0.543 0.852,-0.543c0.354,0 0.941,-0.329 1.304,-0.731c0.364,-0.401 0.982,-0.832 1.375,-0.956c0.889,-0.283 4.769,-2.845 5.993,-3.958c0.502,-0.457 1.94,-1.58 3.195,-2.496c1.254,-0.915 2.599,-1.956 2.987,-2.312c0.388,-0.356 0.798,-0.648 0.912,-0.648c0.308,0 3.1,-2.234 4.506,-3.608c0.678,-0.661 1.387,-1.202 1.577,-1.202c0.189,0 0.523,-0.333 0.741,-0.74c0.217,-0.407 0.563,-0.74 0.767,-0.74c0.204,0 1.055,-0.658 1.892,-1.461c0.836,-0.804 2.203,-1.901 3.038,-2.439c0.835,-0.538 2.059,-1.647 2.721,-2.464l1.202,-1.487l0,-60.963c0,-62.509 0.035,-64.621 1.043,-64.056c0.337,0.188 0.909,0.169 1.38,-0.046c1.653,-0.753 10.257,6.895 18.61,16.542c1.762,2.035 3.441,3.949 3.73,4.252c0.289,0.304 1.699,2.136 3.134,4.071c6.698,9.033 9.727,13.59 12.454,18.74c0.847,1.6 1.955,3.46 2.461,4.133c1.117,1.483 7.648,14.322 8.273,16.263c0.245,0.761 0.591,1.569 0.769,1.794c0.178,0.226 0.638,1.308 1.023,2.406c0.732,2.086 1.575,4.344 3.92,10.49c0.773,2.026 1.617,4.441 1.876,5.365c0.26,0.925 0.812,2.865 1.228,4.311c0.417,1.446 1.424,5.276 2.238,8.511c1.336,5.3 1.889,8.372 3.99,22.162c0.973,6.382 0.941,36.503 -0.045,43.478c-0.872,6.161 -2.583,16.078 -3.289,19.056c-1.794,7.566 -5.213,19.316 -6.536,22.458c-0.198,0.47 -1.214,3.097 -2.258,5.838c-1.044,2.742 -3.447,8.153 -5.339,12.026c-3.127,6.402 -4.093,8.238 -7.404,14.07c-1.717,3.025 -5.839,9.468 -7.011,10.959c-0.418,0.532 -0.962,1.281 -1.211,1.665c-0.248,0.385 -1.039,1.532 -1.756,2.55c-0.718,1.017 -1.594,2.266 -1.946,2.775c-5.99,8.64 -21.107,24.366 -30.444,31.669c-3.052,2.387 -14.686,10.884 -14.903,10.884c-0.089,0 -1.643,0.967 -3.453,2.15c-7.676,5.014 -22.232,12.415 -31.228,15.876c-13.663,5.257 -25.587,8.387 -41.998,11.025c-10.966,1.762 -39.731,1.76 -51.012,-0.003c-20.818,-3.255 -38.725,-8.802 -55.926,-17.324c-12.108,-5.999 -18.928,-10.212 -31.126,-19.229c-8.158,-6.03 -20.973,-17.963 -25.68,-23.91c-0.708,-0.895 -2.019,-2.467 -2.912,-3.493c-2.996,-3.441 -5.962,-7.319 -5.962,-7.797c0,-0.26 -0.333,-0.775 -0.74,-1.143c-0.407,-0.369 -0.74,-1.01 -0.74,-1.425c0,-0.415 -0.431,-1.205 -0.958,-1.755c-0.805,-0.841 -0.892,-1.124 -0.542,-1.778c0.425,-0.793 1.87,-1.094 1.87,-0.389c0,0.214 0.625,0.649 1.388,0.967c0.763,0.318 1.471,0.707 1.573,0.864c0.101,0.158 0.767,0.552 1.48,0.876c1.302,0.593 1.982,0.98 3.716,2.117c0.518,0.339 1.642,0.735 2.498,0.88c0.856,0.144 1.556,0.398 1.556,0.564c0,0.365 2.051,1.114 3.05,1.114c0.395,0 1.142,0.333 1.66,0.74c0.522,0.411 1.501,0.74 2.2,0.74c0.693,0 1.878,0.309 2.633,0.688c0.764,0.382 2.959,0.863 4.948,1.083c1.966,0.218 4.081,0.658 4.699,0.978c0.786,0.406 2.161,0.581 4.566,0.581c1.893,0 4.607,0.247 6.032,0.549c3.164,0.67 27.133,0.819 28.335,0.176c0.396,-0.212 3.768,-0.536 7.494,-0.722c3.998,-0.198 7.447,-0.556 8.415,-0.873c0.901,-0.295 3.221,-0.644 5.154,-0.777c1.934,-0.132 4.514,-0.55 5.736,-0.929c1.221,-0.378 3.339,-0.78 4.707,-0.891c1.368,-0.112 2.983,-0.46 3.589,-0.773c0.607,-0.314 1.741,-0.57 2.52,-0.57c0.78,0 2.329,-0.262 3.442,-0.582c1.112,-0.32 3.166,-0.728 4.564,-0.907c1.398,-0.179 2.813,-0.563 3.145,-0.854c0.333,-0.291 1.603,-0.648 2.824,-0.794c1.222,-0.146 2.919,-0.582 3.773,-0.969c0.854,-0.388 2.109,-0.704 2.789,-0.704c0.681,0 1.843,-0.309 2.583,-0.686c0.74,-0.378 2.138,-0.795 3.107,-0.928c0.969,-0.133 2.109,-0.469 2.534,-0.748c0.426,-0.278 1.685,-0.629 2.8,-0.779c1.114,-0.15 2.442,-0.479 2.951,-0.731c1.078,-0.534 3.659,-1.431 6.973,-2.424c1.292,-0.386 2.541,-0.854 2.775,-1.039c0.235,-0.184 1.142,-0.444 2.014,-0.577c0.872,-0.133 2.202,-0.572 2.955,-0.976c0.752,-0.403 1.627,-0.733 1.943,-0.733c0.316,0 1.191,-0.314 1.944,-0.698c0.753,-0.384 1.937,-0.805 2.631,-0.935c0.694,-0.13 1.466,-0.482 1.715,-0.782c0.249,-0.3 0.813,-0.545 1.254,-0.545c0.441,0 1.41,-0.311 2.154,-0.69c0.744,-0.379 1.862,-0.792 2.484,-0.916c0.621,-0.124 1.87,-0.563 2.775,-0.975c0.905,-0.412 1.812,-0.75 2.017,-0.75c0.204,0 0.512,-0.25 0.683,-0.556c0.171,-0.305 1.215,-0.79 2.32,-1.077c1.105,-0.286 2.069,-0.702 2.143,-0.924c0.074,-0.222 0.537,-0.403 1.029,-0.403c0.492,0 1.227,-0.333 1.634,-0.74c0.407,-0.407 1.033,-0.74 1.391,-0.74c0.357,0 1.432,-0.416 2.388,-0.925c0.956,-0.509 1.973,-0.925 2.26,-0.925c0.287,0 0.919,-0.308 1.404,-0.684c0.486,-0.376 1.382,-0.805 1.993,-0.954c0.61,-0.148 1.36,-0.491 1.665,-0.762c0.305,-0.27 1.263,-0.68 2.128,-0.91c0.865,-0.231 1.572,-0.566 1.572,-0.745c0,-0.18 0.492,-0.435 1.093,-0.567c0.601,-0.132 1.488,-0.551 1.972,-0.931c0.483,-0.381 1.337,-0.807 1.897,-0.947c0.56,-0.141 1.1,-0.468 1.199,-0.727c0.1,-0.259 0.748,-0.577 1.44,-0.707c0.693,-0.13 1.389,-0.446 1.547,-0.701c0.159,-0.256 2.036,-1.341 4.173,-2.411c5.617,-2.813 9.282,-4.784 9.957,-5.355c0.324,-0.274 1.13,-0.713 1.792,-0.974c0.661,-0.262 1.202,-0.624 1.202,-0.804c0,-0.181 0.666,-0.595 1.48,-0.921c0.814,-0.325 1.48,-0.727 1.48,-0.892c0,-0.166 0.5,-0.411 1.11,-0.545c0.611,-0.134 1.111,-0.405 1.111,-0.603c0,-0.198 0.554,-0.591 1.232,-0.874c0.677,-0.283 1.447,-0.774 1.71,-1.092c0.263,-0.317 0.687,-0.576 0.943,-0.576c0.255,0 0.68,-0.259 0.943,-0.576c0.263,-0.317 1.032,-0.808 1.71,-1.092c0.678,-0.283 1.232,-0.669 1.232,-0.857c0,-0.188 0.467,-0.436 1.037,-0.55c0.571,-0.114 1.778,-0.884 2.683,-1.711c0.905,-0.828 1.828,-1.504 2.051,-1.504c0.223,0 0.706,-0.333 1.075,-0.74c0.368,-0.407 0.862,-0.741 1.097,-0.741c0.236,0 0.762,-0.31 1.169,-0.69c0.407,-0.379 1.128,-0.897 1.602,-1.151c1.333,-0.713 5.197,-3.79 5.197,-4.138c0,-0.171 0.22,-0.311 0.489,-0.311c0.268,0 0.831,-0.375 1.25,-0.833c0.419,-0.457 1.611,-1.332 2.65,-1.942c1.038,-0.611 1.891,-1.23 1.895,-1.376c0.004,-0.146 0.406,-0.479 0.893,-0.74c0.999,-0.535 5.201,-4.215 8.464,-7.412c1.194,-1.171 2.246,-2.128 2.338,-2.128c0.333,0 11.872,-11.685 12.607,-12.766c2.052,-3.021 -0.306,-3.945 -3.029,-1.187c-1.789,1.811 -3.791,3.592 -4.04,3.592c-0.145,0 -1.457,0.962 -2.917,2.138c-1.459,1.176 -3.621,2.793 -4.804,3.593c-1.182,0.799 -2.714,2.002 -3.404,2.672c-0.69,0.67 -1.421,1.218 -1.624,1.218c-0.203,0 -1.142,0.541 -2.086,1.202c-0.944,0.662 -2.034,1.384 -2.421,1.606c-0.388,0.222 -0.998,0.66 -1.355,0.974c-0.358,0.314 -1.025,0.685 -1.483,0.824c-0.458,0.14 -0.832,0.418 -0.832,0.618c0,0.201 -0.5,0.539 -1.111,0.752c-0.61,0.213 -1.11,0.541 -1.11,0.729c0,0.187 -0.458,0.536 -1.017,0.775c-0.56,0.238 -1.31,0.678 -1.668,0.977c-0.707,0.59 -1.229,0.912 -3.555,2.189c-0.842,0.462 -1.53,0.99 -1.53,1.173c0,0.183 -0.5,0.443 -1.11,0.577c-0.61,0.134 -1.319,0.522 -1.576,0.862c-0.514,0.682 -1.945,1.559 -4.067,2.493c-0.763,0.336 -1.388,0.725 -1.388,0.866c0,0.141 -0.583,0.466 -1.295,0.724c-0.712,0.257 -1.295,0.611 -1.295,0.785c0,0.175 -0.624,0.518 -1.388,0.763c-0.763,0.245 -1.637,0.655 -1.942,0.91c-0.306,0.256 -0.915,0.574 -1.354,0.708c-0.44,0.134 -1.002,0.486 -1.248,0.784c-0.247,0.297 -0.696,0.541 -0.998,0.541c-0.302,0 -1.043,0.416 -1.648,0.925c-0.605,0.508 -1.352,0.925 -1.66,0.925c-0.309,0 -0.984,0.333 -1.502,0.74c-0.517,0.407 -1.183,0.74 -1.48,0.74c-0.297,0 -0.963,0.333 -1.48,0.74c-0.518,0.407 -1.229,0.74 -1.581,0.74c-0.352,0 -1.051,0.323 -1.552,0.717c-0.502,0.394 -1.37,0.832 -1.93,0.973c-0.56,0.14 -1.099,0.467 -1.199,0.725c-0.099,0.258 -0.895,0.65 -1.768,0.87c-0.874,0.22 -1.799,0.653 -2.055,0.963c-0.257,0.309 -0.699,0.562 -0.981,0.562c-0.283,0 -1.303,0.355 -2.268,0.788c-2.776,1.248 -4.619,2.039 -5.916,2.539c-0.661,0.255 -1.203,0.61 -1.203,0.788c0,0.179 -0.214,0.326 -0.476,0.326c-0.263,0 -1.137,0.339 -1.943,0.753c-0.806,0.415 -2.213,0.924 -3.125,1.131c-0.913,0.208 -1.912,0.599 -2.22,0.871c-0.309,0.271 -1.091,0.605 -1.738,0.742c-0.648,0.138 -1.365,0.476 -1.594,0.753c-0.23,0.276 -1.064,0.611 -1.855,0.745c-0.79,0.134 -1.63,0.475 -1.866,0.759c-0.235,0.284 -1.036,0.627 -1.779,0.761c-0.742,0.135 -1.968,0.556 -2.723,0.935c-0.755,0.38 -1.594,0.69 -1.864,0.69c-0.271,0 -1.145,0.333 -1.943,0.74c-0.799,0.407 -1.625,0.742 -1.836,0.744c-0.212,0.002 -1.217,0.413 -2.235,0.913c-1.017,0.501 -2.349,0.916 -2.96,0.923c-0.61,0.007 -1.655,0.346 -2.322,0.752c-0.666,0.406 -1.684,0.739 -2.262,0.739c-0.578,0 -1.449,0.305 -1.934,0.679c-0.485,0.374 -1.872,0.875 -3.082,1.112c-1.21,0.238 -2.292,0.575 -2.405,0.749c-0.113,0.175 -1.038,0.436 -2.056,0.582c-1.018,0.146 -2.199,0.489 -2.625,0.762c-0.426,0.273 -1.712,0.67 -2.859,0.882c-1.146,0.212 -2.463,0.624 -2.926,0.915c-0.462,0.291 -1.673,0.643 -2.691,0.783c-1.017,0.139 -2.183,0.464 -2.59,0.722c-0.407,0.257 -1.785,0.575 -3.062,0.706c-1.277,0.131 -2.776,0.468 -3.33,0.749c-0.555,0.281 -2.065,0.626 -3.356,0.767c-1.291,0.141 -2.789,0.427 -3.33,0.635c-0.541,0.208 -2.389,0.626 -4.107,0.928c-1.717,0.302 -3.441,0.719 -3.83,0.928c-0.389,0.208 -1.814,0.529 -3.167,0.714c-1.353,0.185 -3.043,0.574 -3.755,0.863c-0.712,0.29 -3.402,0.704 -5.977,0.921c-2.576,0.217 -5.097,0.552 -5.604,0.745c-0.506,0.193 -3.145,0.53 -5.863,0.749c-2.719,0.219 -5.859,0.645 -6.978,0.945c-3.497,0.938 -35.297,0.786 -39.927,-0.191c-1.913,-0.404 -4.181,-0.734 -5.039,-0.734c-0.859,0 -2.54,-0.311 -3.737,-0.69c-1.197,-0.379 -3.008,-0.803 -4.026,-0.941c-1.017,-0.139 -2.266,-0.392 -2.775,-0.563c-0.509,-0.171 -1.674,-0.514 -2.59,-0.762c-0.916,-0.248 -2.35,-0.767 -3.186,-1.153c-0.836,-0.386 -1.69,-0.702 -1.898,-0.702c-0.368,0 -3.196,-1.185 -6.243,-2.616c-0.836,-0.392 -1.799,-0.714 -2.139,-0.714c-0.34,0 -0.711,-0.242 -0.825,-0.537c-0.113,-0.295 -0.759,-0.72 -1.435,-0.943c-0.677,-0.223 -1.323,-0.648 -1.436,-0.943c-0.114,-0.295 -0.392,-0.537 -0.619,-0.537c-0.227,0 -1.367,-0.749 -2.533,-1.665c-1.165,-0.916 -2.226,-1.665 -2.356,-1.665c-0.41,0 -5.267,-5.041 -5.747,-5.965c-0.252,-0.484 -0.952,-1.547 -1.556,-2.361c-1.279,-1.725 -3.33,-5.737 -3.33,-6.515c0,-0.295 -0.225,-0.864 -0.5,-1.266c-0.275,-0.401 -0.606,-1.534 -0.737,-2.518c-0.13,-0.983 -0.472,-2.315 -0.76,-2.96c-0.288,-0.645 -0.614,-2.041 -0.724,-3.104c-0.362,-3.475 -1.521,-4.453 -2.595,-2.189c-0.325,0.684 -0.827,1.44 -1.116,1.68c-0.289,0.24 -0.638,0.887 -0.776,1.439c-0.137,0.551 -0.464,1.252 -0.725,1.557c-0.262,0.305 -0.584,1.127 -0.716,1.826c-0.132,0.699 -0.503,1.561 -0.823,1.915c-0.339,0.375 -0.668,1.625 -0.784,2.985c-0.11,1.287 -0.416,2.589 -0.679,2.895c-0.263,0.305 -0.601,1.054 -0.75,1.665c-0.15,0.61 -0.52,1.491 -0.822,1.957c-0.353,0.547 -0.603,2.124 -0.701,4.441c-0.2,4.691 -0.323,5.224 -1.192,5.158c-1.303,-0.098 -6.671,-10.445 -9.258,-17.847c-6.784,-19.405 -9.494,-30.649 -11.316,-46.963c-0.773,-6.916 -0.748,-34.899 0.036,-41.103c0.309,-2.442 0.718,-5.707 0.91,-7.254c0.191,-1.547 0.599,-3.415 0.907,-4.151c0.307,-0.736 0.559,-2.259 0.559,-3.384c0,-1.126 0.14,-2.048 0.31,-2.048c0.552,0 1.17,-1.841 1.17,-3.482c0,-1.038 0.259,-1.928 0.74,-2.539c0.497,-0.631 0.74,-1.501 0.74,-2.644c0,-1.245 0.199,-1.873 0.74,-2.336c0.437,-0.374 0.741,-1.093 0.741,-1.754c0.001,-0.616 0.315,-1.634 0.698,-2.261c0.382,-0.628 0.81,-1.822 0.951,-2.654c0.14,-0.832 0.472,-1.596 0.736,-1.697c0.265,-0.102 0.599,-0.823 0.744,-1.602c0.144,-0.779 0.582,-1.936 0.971,-2.571c0.39,-0.635 0.709,-1.635 0.709,-2.224c0,-0.669 0.278,-1.243 0.741,-1.532c0.45,-0.281 0.74,-0.863 0.74,-1.487c0,-0.566 0.33,-1.307 0.74,-1.658c0.432,-0.37 0.74,-1.092 0.74,-1.734c0,-0.696 0.254,-1.237 0.691,-1.471c0.38,-0.203 0.791,-0.87 0.913,-1.481c0.123,-0.612 0.561,-1.45 0.974,-1.864c0.414,-0.413 0.752,-1.15 0.752,-1.637c0,-0.487 0.244,-0.979 0.543,-1.094c0.299,-0.114 0.805,-0.757 1.124,-1.427c0.975,-2.049 1.766,-3.409 2.281,-3.924c0.27,-0.271 0.602,-0.938 0.737,-1.483c0.135,-0.546 0.551,-1.21 0.925,-1.476c0.374,-0.266 0.68,-0.698 0.68,-0.96c0,-0.262 0.333,-0.778 0.74,-1.146c0.408,-0.369 0.741,-0.969 0.741,-1.334c0,-0.366 0.237,-0.798 0.527,-0.961c0.598,-0.335 2.433,-2.928 2.433,-3.438c0,-0.184 0.374,-0.761 0.832,-1.282c0.458,-0.522 1.117,-1.321 1.465,-1.777c0.347,-0.456 1.055,-1.353 1.572,-1.992c0.518,-0.64 0.941,-1.37 0.941,-1.622c0,-0.252 0.55,-0.977 1.222,-1.612c1.378,-1.3 5.439,-6.022 5.439,-6.323c0,-0.459 16.053,-16.847 16.503,-16.847c0.149,0 0.535,-0.247 0.857,-0.55c0.322,-0.302 1.752,-1.509 3.176,-2.682c1.425,-1.172 3.137,-2.673 3.805,-3.335c0.668,-0.662 1.319,-1.204 1.445,-1.204c0.127,0 0.776,-0.416 1.444,-0.925c0.667,-0.508 1.326,-0.925 1.465,-0.925c0.14,0 0.9,-0.666 1.69,-1.48c0.79,-0.814 1.686,-1.48 1.992,-1.48c0.305,0 0.888,-0.333 1.295,-0.74c0.407,-0.407 0.878,-0.74 1.046,-0.74c0.168,0 0.696,-0.416 1.174,-0.925c0.478,-0.509 0.999,-0.925 1.158,-0.925c0.37,0 2.914,-1.656 3.684,-2.396c0.322,-0.311 0.832,-0.564 1.133,-0.564c0.3,0 0.869,-0.293 1.264,-0.651c0.394,-0.357 1.175,-0.853 1.734,-1.102c0.56,-0.248 1.018,-0.622 1.018,-0.83c0,-0.208 0.324,-0.378 0.721,-0.378c0.397,0 1.17,-0.416 1.719,-0.925c0.549,-0.509 1.295,-0.925 1.658,-0.925c0.363,0 0.897,-0.237 1.188,-0.528c0.29,-0.29 1.303,-0.892 2.251,-1.338c0.948,-0.445 1.814,-0.957 1.925,-1.137c0.111,-0.18 0.458,-0.327 0.77,-0.327c0.312,0 0.991,-0.333 1.508,-0.74c0.517,-0.407 1.229,-0.74 1.581,-0.74c0.352,0 1.064,-0.333 1.581,-0.74c0.518,-0.407 1.283,-0.74 1.701,-0.74c0.418,0 1.057,-0.311 1.421,-0.691c0.365,-0.38 1.271,-0.801 2.014,-0.935c0.744,-0.135 1.44,-0.473 1.547,-0.753c0.107,-0.279 0.914,-0.629 1.794,-0.777c0.879,-0.148 1.995,-0.581 2.48,-0.962c0.486,-0.381 1.334,-0.693 1.886,-0.693c0.551,0 1.304,-0.333 1.672,-0.74c0.394,-0.435 1.141,-0.74 1.815,-0.741c0.63,-0.001 1.691,-0.334 2.357,-0.74c0.666,-0.406 1.589,-0.739 2.049,-0.739c0.461,0 1.498,-0.337 2.304,-0.749c0.806,-0.412 2.132,-0.849 2.946,-0.972c0.814,-0.123 1.999,-0.535 2.634,-0.916c0.635,-0.381 1.803,-0.693 2.596,-0.693c0.793,0 2.063,-0.333 2.822,-0.74c0.76,-0.407 2.006,-0.748 2.77,-0.756c0.764,-0.009 2.055,-0.278 2.869,-0.598c0.814,-0.319 2.927,-0.783 4.696,-1.03c1.768,-0.247 3.479,-0.668 3.803,-0.936c0.355,-0.295 2.229,-0.597 4.74,-0.764c2.408,-0.16 4.619,-0.508 5.263,-0.829c0.801,-0.4 3.011,-0.62 7.955,-0.79c3.765,-0.129 7.845,-0.467 9.066,-0.751c3.376,-0.783 30.088,-0.781 33.672,0.002m-10.838,58.513c-2.889,0.135 -3.089,0.198 -3.426,1.086c-0.542,1.427 -0.481,156.983 0.063,157.637c0.642,0.775 3.977,0.633 5.602,-0.238c0.76,-0.407 1.59,-0.742 1.845,-0.744c0.255,-0.002 1.296,-0.413 2.314,-0.913c1.018,-0.501 2.35,-0.916 2.96,-0.923c0.611,-0.008 1.655,-0.346 2.322,-0.752c0.666,-0.406 1.518,-0.739 1.893,-0.739c0.374,0 1.104,-0.333 1.622,-0.74c0.517,-0.407 1.266,-0.74 1.665,-0.74c0.398,0 1.134,-0.323 1.636,-0.717c0.501,-0.394 1.398,-0.837 1.992,-0.984c0.595,-0.147 2.419,-0.894 4.053,-1.661c1.635,-0.766 3.439,-1.511 4.008,-1.654c0.57,-0.142 1.116,-0.469 1.214,-0.725c0.099,-0.257 0.699,-0.57 1.334,-0.697c0.635,-0.127 1.415,-0.463 1.734,-0.747c0.318,-0.284 1.267,-0.7 2.109,-0.924c0.841,-0.224 1.735,-0.655 1.987,-0.959c0.253,-0.304 0.749,-0.553 1.104,-0.553c0.354,0 1.055,-0.322 1.556,-0.717c0.502,-0.394 1.358,-0.829 1.904,-0.966c0.545,-0.137 1.09,-0.407 1.209,-0.601c0.12,-0.193 0.618,-0.503 1.107,-0.689c2.529,-0.962 2.332,4.949 2.359,-70.517l0.025,-67.802l-0.901,-1.046l-0.9,-1.047l-20.661,-0.035c-11.364,-0.019 -22.042,0.029 -23.729,0.107m44.275,1.685c0.347,0.961 0.544,132.772 0.202,135.454c-0.189,1.486 -0.389,1.843 -1.207,2.153c-0.538,0.204 -3.144,1.437 -5.79,2.739c-4.972,2.447 -10.469,5.037 -13.691,6.449c-1.017,0.446 -2.292,1.048 -2.832,1.338c-0.54,0.289 -1.206,0.527 -1.48,0.528c-0.274,0.002 -0.998,0.264 -1.608,0.584c-0.611,0.319 -3.275,1.41 -5.921,2.423c-9.613,3.682 -11.893,4.456 -13.321,4.524l-1.11,0.053l-0.095,-78.076c-0.052,-42.942 -0.015,-78.284 0.081,-78.539c0.138,-0.363 5.146,-0.462 23.324,-0.462l23.147,0l0.301,0.832m73.131,26.55c0.126,0.203 0.469,0.37 0.762,0.37c0.293,0 0.533,-0.167 0.533,-0.37c0,-0.204 -0.342,-0.37 -0.761,-0.37c-0.42,0 -0.659,0.166 -0.534,0.37m2.406,1.288c0,0.301 0.457,0.657 1.017,0.791c0.56,0.134 1.212,0.395 1.449,0.582c0.291,0.228 0.51,0.091 0.673,-0.422c0.158,-0.498 0.582,-0.775 1.233,-0.805c0.654,-0.031 0.425,-0.148 -0.672,-0.343c-2.657,-0.473 -3.7,-0.417 -3.7,0.197m-180.317,5.376l-1.182,0.559l0.111,66.786c0.062,36.732 0.103,67.49 0.093,68.35c-0.034,2.821 3.654,3.629 9.531,2.088c1.158,-0.304 3.636,-0.683 5.507,-0.843c2.107,-0.179 3.756,-0.523 4.335,-0.902c0.513,-0.336 1.599,-0.612 2.413,-0.612c0.813,0 2.359,-0.317 3.435,-0.704c1.077,-0.388 2.976,-0.786 4.223,-0.886c1.246,-0.099 2.661,-0.431 3.145,-0.736c0.484,-0.306 2.042,-0.751 3.463,-0.991c1.421,-0.239 2.776,-0.594 3.011,-0.79c0.236,-0.195 1.488,-0.538 2.783,-0.762c1.294,-0.224 2.803,-0.635 3.352,-0.914c0.55,-0.279 1.387,-0.507 1.861,-0.507c0.473,0 1.231,-0.259 1.683,-0.576l0.823,-0.576l0,-63.796c0,-60.952 -0.03,-63.811 -0.664,-64.151c-1.234,-0.66 -46.529,-0.696 -47.923,-0.037m47.181,1.033c0.39,0.391 0.481,12.218 0.481,63.03l0,62.548l-0.809,0.655c-0.444,0.36 -1.841,0.857 -3.103,1.106c-1.263,0.248 -2.564,0.604 -2.892,0.79c-0.328,0.186 -1.679,0.6 -3.002,0.921c-1.323,0.32 -3.737,0.912 -5.366,1.315c-1.628,0.403 -4.209,0.986 -5.735,1.296c-1.526,0.31 -3.819,0.885 -5.096,1.278c-1.276,0.393 -2.754,0.714 -3.285,0.714c-0.531,0 -2.235,0.322 -3.785,0.715c-2.87,0.728 -7.787,1.482 -11.586,1.776l-2.105,0.163l-0.219,-1.234c-0.121,-0.679 -0.173,-31.366 -0.116,-68.193l0.105,-66.958l0.925,-0.265c1.803,-0.515 45.056,-0.19 45.588,0.343m168.491,17.849c0.524,1.518 1.091,3.427 1.259,4.241c0.244,1.174 0.316,1.27 0.348,0.466c0.042,-1.055 -1.665,-6.49 -2.234,-7.113c-0.179,-0.196 0.103,0.887 0.627,2.406m-273.411,10.283c-0.564,0.623 -0.612,4.849 -0.612,53.251l0,52.575l1.138,0.958c0.626,0.527 1.549,0.958 2.05,0.958c0.501,0 1.529,0.311 2.284,0.693c0.755,0.381 2.512,0.812 3.905,0.958c1.392,0.146 3.07,0.49 3.729,0.765c3.668,1.533 34.386,1.547 36.076,0.017l0.771,-0.698l0,-54.102l0,-54.102l-0.767,-0.975l-0.766,-0.975l-23.598,0c-22.391,0 -23.629,0.035 -24.21,0.677m47.363,1.253c0.754,1.367 0.712,106.112 -0.044,107.573l-0.546,1.057l-5.839,0.277c-6.634,0.314 -18.944,0.007 -21.83,-0.545c-1.061,-0.203 -3.392,-0.543 -5.18,-0.755c-1.788,-0.212 -4.333,-0.697 -5.656,-1.079c-1.323,-0.381 -3.21,-0.882 -4.195,-1.113c-0.985,-0.232 -2.187,-0.709 -2.671,-1.061l-0.881,-0.641l-0.012,-51.874c-0.009,-41.104 0.085,-51.937 0.451,-52.174c0.425,-0.275 36.841,-0.773 43.181,-0.59c2.444,0.07 2.808,0.175 3.222,0.925m-68.882,58.695c-1.445,1.369 -3.092,3.388 -3.672,4.5c-0.158,0.306 0.125,0.056 0.63,-0.555c2.032,-2.457 4.74,-5.018 5.083,-4.806c0.2,0.123 0.364,0.048 0.364,-0.167c0,-0.76 -0.942,-0.358 -2.405,1.028m256.244,16.341c0,0.204 -0.25,0.37 -0.555,0.37c-0.305,0 -0.555,0.166 -0.555,0.369c0,1.13 -12.712,12.66 -21.716,19.697c-0.852,0.666 -2.164,1.71 -2.916,2.321c-0.752,0.61 -1.811,1.36 -2.353,1.665c-0.543,0.305 -1.962,1.304 -3.154,2.22c-4.33,3.326 -4.844,3.691 -5.742,4.084c-0.502,0.22 -1.612,0.973 -2.467,1.673c-0.855,0.701 -1.701,1.274 -1.881,1.274c-0.179,0 -1.356,0.749 -2.614,1.665c-1.259,0.916 -2.416,1.665 -2.572,1.665c-0.156,0.001 -1.199,0.635 -2.318,1.41c-2.227,1.542 -8.192,5.025 -12.275,7.167c-1.428,0.749 -2.872,1.594 -3.209,1.877c-0.337,0.283 -1.695,0.983 -3.018,1.554c-1.323,0.571 -2.655,1.235 -2.96,1.474c-0.305,0.239 -3.719,1.991 -7.586,3.892c-3.866,1.902 -7.28,3.6 -7.585,3.775c-0.305,0.175 -0.971,0.5 -1.48,0.721c-0.509,0.222 -1.591,0.71 -2.405,1.085c-0.815,0.374 -2.23,1.009 -3.146,1.41c-0.916,0.402 -2.581,1.134 -3.7,1.627c-1.901,0.837 -2.874,1.247 -8.141,3.425c-4.159,1.721 -5.79,2.37 -7.955,3.167c-1.221,0.45 -3.157,1.211 -4.302,1.693c-1.145,0.482 -2.315,0.876 -2.6,0.876c-0.286,0 -0.848,0.228 -1.249,0.507c-0.401,0.28 -1.313,0.632 -2.025,0.782c-0.712,0.151 -1.994,0.589 -2.847,0.973c-0.854,0.384 -1.853,0.702 -2.221,0.706c-0.367,0.004 -1.393,0.337 -2.28,0.74c-0.888,0.403 -1.883,0.732 -2.213,0.732c-0.33,0 -1.436,0.322 -2.458,0.716c-2.462,0.95 -5.217,1.836 -7.037,2.264c-0.814,0.191 -2.646,0.699 -4.071,1.127c-1.424,0.429 -3.339,1.005 -4.255,1.279c-2.205,0.661 -9.027,2.388 -11.014,2.787c-0.867,0.175 -1.895,0.487 -2.283,0.695c-0.387,0.207 -1.925,0.55 -3.417,0.761c-1.492,0.211 -3.545,0.613 -4.563,0.893c-2.618,0.722 -7.511,1.651 -11.882,2.259c-2.058,0.286 -4.166,0.681 -4.684,0.878c-0.518,0.197 -2.414,0.468 -4.214,0.602c-1.799,0.134 -4.687,0.481 -6.417,0.772c-7.271,1.224 -38.012,1.587 -43.92,0.519c-0.978,-0.177 -2.944,-0.513 -4.368,-0.746c-7.138,-1.169 -11.999,-2.206 -13.166,-2.81c-0.526,-0.271 -1.608,-0.653 -2.406,-0.848c-15.676,-3.83 -27.468,-16.646 -29.263,-31.806c-0.512,-4.32 3.141,-17.545 6.02,-21.798c0.97,-1.434 1.13,-1.175 1.483,2.405c0.135,1.371 0.477,2.951 0.759,3.511c0.283,0.56 0.676,1.87 0.873,2.911c0.968,5.104 7.479,14.18 12.802,17.848c4.425,3.048 6.7,4.45 9.895,6.096c3.49,1.799 9.546,4.135 10.719,4.135c0.307,0 1.03,0.231 1.606,0.515c1.211,0.596 6.693,1.933 9.928,2.422c1.222,0.185 2.887,0.504 3.701,0.709c0.814,0.205 4.061,0.544 7.215,0.753c3.155,0.21 7.9,0.567 10.546,0.794c3.473,0.299 6.662,0.305 11.471,0.022c3.663,-0.215 9.574,-0.564 13.136,-0.775c3.561,-0.211 7.474,-0.547 8.696,-0.746c1.221,-0.199 3.885,-0.539 5.92,-0.754c2.035,-0.215 4.783,-0.631 6.105,-0.924c1.323,-0.293 3.782,-0.696 5.465,-0.895c1.682,-0.199 3.352,-0.519 3.71,-0.711c0.358,-0.191 1.901,-0.522 3.428,-0.734c1.527,-0.213 3.354,-0.625 4.06,-0.916c0.706,-0.291 2.533,-0.651 4.059,-0.8c1.526,-0.15 3.104,-0.501 3.505,-0.781c0.402,-0.28 1.156,-0.51 1.677,-0.51c0.521,0 1.858,-0.256 2.97,-0.569c1.113,-0.313 3.273,-0.877 4.799,-1.252c1.526,-0.376 3.275,-0.857 3.885,-1.07c0.611,-0.213 2.609,-0.828 4.441,-1.368c1.831,-0.539 4.495,-1.325 5.92,-1.746c1.425,-0.421 4.255,-1.336 6.291,-2.032c2.035,-0.696 4.583,-1.491 5.662,-1.766c1.08,-0.275 2.162,-0.655 2.406,-0.845c0.243,-0.189 1.108,-0.524 1.922,-0.744c0.814,-0.22 2.646,-0.844 4.071,-1.385c1.424,-0.542 3.256,-1.221 4.07,-1.51c0.814,-0.288 1.922,-0.771 2.462,-1.074c0.54,-0.302 1.228,-0.55 1.528,-0.55c0.3,0 1.523,-0.427 2.718,-0.95c2.207,-0.965 3.603,-1.553 7.908,-3.33c1.323,-0.546 3.071,-1.29 3.885,-1.654c4.468,-1.994 6.161,-2.777 8.456,-3.913c1.395,-0.689 2.746,-1.254 3.003,-1.254c0.257,0 0.893,-0.334 1.412,-0.743c0.52,-0.409 1.462,-0.847 2.093,-0.973c0.631,-0.126 1.224,-0.353 1.318,-0.505c0.094,-0.151 1.131,-0.733 2.305,-1.294c4.341,-2.071 9.25,-4.587 10.46,-5.361c0.306,-0.195 2.387,-1.329 4.626,-2.52c2.238,-1.191 4.695,-2.528 5.458,-2.97c0.763,-0.443 1.928,-1.118 2.59,-1.501c3.116,-1.802 6.436,-3.77 6.938,-4.111c0.305,-0.208 1.807,-1.168 3.336,-2.133c1.53,-0.966 3.195,-2.054 3.701,-2.419c0.505,-0.365 2.75,-1.839 4.989,-3.276c3.953,-2.537 8.119,-5.512 12.229,-8.734c1.104,-0.865 2.169,-1.573 2.369,-1.573c0.199,0 0.54,-0.333 0.758,-0.74c0.218,-0.407 0.632,-0.74 0.92,-0.74c0.288,0 0.656,-0.225 0.819,-0.5c0.468,-0.793 1.961,-1.256 1.961,-0.61" id="path4"/>
  </g>
  <text font-weight="bold" font-style="italic" xml:space="preserve" text-anchor="start" font-family="Helvetica, Arial, sans-serif" font-size="250" id="svg_1" y="272.99172" x="426.0004" stroke-width="0" stroke="#000" fill="#000000">Portfolio Manager</text>
 </g>
</svg>